<svg width="30" height="30" viewBox="0 0 30 30" fill="none" xmlns="http://www.w3.org/2000/svg">
<path d="M12.6406 3.77871L10.2506 10.705C10.1876 10.894 10.0802 11.0653 9.93761 11.2044C9.79497 11.3436 9.62112 11.4466 9.43057 11.505L2.52932 13.61L9.45557 16.0062C9.64191 16.0683 9.811 16.1734 9.94912 16.3131C10.0872 16.4527 10.1905 16.623 10.2506 16.81L12.4631 23.7225L14.7506 16.81C14.8112 16.6202 14.9164 16.4476 15.0573 16.3067C15.1982 16.1658 15.3708 16.0606 15.5606 16L22.4731 13.7887C22.4819 13.7863 22.4904 13.7825 22.4981 13.7775L15.5606 11.5C15.368 11.4384 15.1933 11.3311 15.0514 11.1872C14.9094 11.0432 14.8045 10.8671 14.7456 10.6737L12.6406 3.77871Z" fill="#99A3F6"/>
<path fill-rule="evenodd" clip-rule="evenodd" d="M23.6746 29.7855C23.8815 29.9255 24.1257 30.0002 24.3756 30C24.626 29.9998 24.8706 29.9243 25.0776 29.7835C25.2847 29.6426 25.4447 29.4428 25.5368 29.21L26.5881 26.585L29.2131 25.5337C29.4421 25.4379 29.6376 25.2766 29.7752 25.07C29.9127 24.8633 29.9861 24.6207 29.9861 24.3725C29.9861 24.1242 29.9127 23.8816 29.7752 23.675C29.6376 23.4683 29.4421 23.307 29.2131 23.2112L26.5881 22.16L25.5368 19.535C25.4406 19.3064 25.2791 19.1114 25.0725 18.9742C24.866 18.8371 24.6235 18.7639 24.3756 18.7639C24.1276 18.7639 23.8852 18.8371 23.6786 18.9742C23.472 19.1114 23.3105 19.3064 23.2143 19.535L22.1681 22.15L19.5581 23.1387C19.3276 23.2303 19.1293 23.3879 18.988 23.5918C18.8468 23.7957 18.769 24.0368 18.7643 24.2848C18.7597 24.5328 18.8283 24.7766 18.9618 24.9857C19.0952 25.1948 19.2874 25.3598 19.5143 25.46L22.1593 26.5737L23.2143 29.215C23.3073 29.4469 23.4676 29.6456 23.6746 29.7855ZM24.8566 8.48539C25.0762 8.65683 25.3469 8.74995 25.6256 8.74996C25.9042 8.74995 26.1749 8.65683 26.3946 8.48539C26.6143 8.31395 26.7704 8.07402 26.8381 7.80371L27.2806 6.03121L29.0531 5.58746C29.3234 5.51972 29.5633 5.36362 29.7347 5.14394C29.9061 4.92426 29.9992 4.6536 29.9992 4.37496C29.9992 4.09632 29.9061 3.82566 29.7347 3.60598C29.5633 3.38631 29.3234 3.2302 29.0531 3.16246L27.2806 2.71871L26.8381 0.946211C26.7703 0.675927 26.6142 0.436025 26.3945 0.264609C26.1749 0.0931931 25.9042 9.15527e-05 25.6256 9.15527e-05C25.3469 9.15527e-05 25.0763 0.0931931 24.8566 0.264609C24.6369 0.436025 24.4808 0.675927 24.4131 0.946211L23.9681 2.70371L22.2181 3.10996C21.9465 3.17282 21.7037 3.32466 21.5283 3.54135C21.3529 3.75804 21.255 4.02714 21.2501 4.30587C21.2452 4.5846 21.3336 4.85697 21.5013 5.07967C21.669 5.30237 21.9063 5.46263 22.1756 5.53496L23.9668 6.01621L24.4131 7.80371C24.4808 8.07402 24.6369 8.31395 24.8566 8.48539Z" fill="#99A3F6"/>
<path fill-rule="evenodd" clip-rule="evenodd" d="M12.5006 26.25C11.9605 26.2565 11.4329 26.0879 10.9967 25.7695C10.5604 25.4511 10.239 25 10.0806 24.4837L8.06307 18.175L1.73432 16.0575C1.22352 15.8867 0.780213 15.5581 0.468425 15.1189C0.156637 14.6798 -0.00749315 14.1529 -0.000259016 13.6143C0.00697511 13.0758 0.185199 12.5535 0.50867 12.1229C0.832142 11.6923 1.28412 11.3757 1.79932 11.2187L8.07807 9.30121L10.1931 2.98371C10.3503 2.4648 10.6756 2.01288 11.1177 1.69903C11.5599 1.38518 12.0938 1.22721 12.6356 1.24996C13.1757 1.25069 13.7011 1.42633 14.133 1.75058C14.565 2.07484 14.8803 2.53027 15.0318 3.04871L16.9468 9.31746L23.2343 11.33C23.7415 11.5001 24.1823 11.8252 24.4947 12.2594C24.8071 12.6937 24.9751 13.2151 24.9751 13.75C24.9751 14.2849 24.8071 14.8063 24.4947 15.2405C24.1823 15.6747 23.7415 15.9999 23.2343 16.17L16.9356 18.185L14.9206 24.4837C14.7621 25 14.4407 25.4511 14.0045 25.7695C13.5682 26.0879 13.0406 26.2565 12.5006 26.25ZM10.2506 10.705L12.6406 3.77871L14.7456 10.6737C14.8045 10.8671 14.9094 11.0432 15.0514 11.1872C15.1933 11.3311 15.368 11.4384 15.5606 11.5L22.4981 13.7775C22.4904 13.7825 22.4819 13.7863 22.4731 13.7887L15.5606 16C15.3708 16.0606 15.1982 16.1658 15.0573 16.3067C14.9164 16.4476 14.8112 16.6202 14.7506 16.81L12.4631 23.7225L10.2506 16.81C10.1905 16.623 10.0872 16.4527 9.94912 16.3131C9.811 16.1734 9.64191 16.0683 9.45557 16.0062L2.52932 13.61L9.43057 11.505C9.62112 11.4466 9.79497 11.3436 9.93761 11.2044C10.0802 11.0653 10.1876 10.894 10.2506 10.705Z" fill="#99A3F6"/>
</svg>
