<svg width="10" height="11" viewBox="0 0 10 11" fill="none" xmlns="http://www.w3.org/2000/svg">
<path d="M5.95102 5.50819L9.47969 1.97953C9.54336 1.91803 9.59415 1.84447 9.62909 1.76313C9.66403 1.68179 9.68242 1.59432 9.68319 1.5058C9.68396 1.41728 9.66709 1.32949 9.63357 1.24756C9.60005 1.16563 9.55055 1.09119 9.48795 1.0286C9.42536 0.966003 9.35092 0.916501 9.26899 0.88298C9.18706 0.849459 9.09927 0.832592 9.01075 0.833361C8.92223 0.83413 8.83475 0.852521 8.75342 0.88746C8.67208 0.9224 8.59852 0.973188 8.53702 1.03686L5.00836 4.56553L1.47969 1.03686C1.35395 0.915423 1.18555 0.848226 1.01075 0.849745C0.835956 0.851264 0.668748 0.921377 0.545143 1.04498C0.421537 1.16859 0.351424 1.3358 0.349905 1.51059C0.348386 1.68539 0.415583 1.85379 0.537022 1.97953L4.06569 5.50819L0.537022 9.03686C0.473348 9.09836 0.42256 9.17192 0.387621 9.25326C0.352681 9.33459 0.33429 9.42207 0.333521 9.51059C0.332752 9.59911 0.34962 9.6869 0.38314 9.76883C0.416661 9.85076 0.466163 9.9252 0.528758 9.98779C0.591353 10.0504 0.665788 10.0999 0.747719 10.1334C0.82965 10.1669 0.917436 10.1838 1.00596 10.183C1.09448 10.1823 1.18196 10.1639 1.26329 10.1289C1.34463 10.094 1.41819 10.0432 1.47969 9.97953L5.00836 6.45086L8.53702 9.97953C8.66276 10.101 8.83116 10.1682 9.00596 10.1666C9.18075 10.1651 9.34796 10.095 9.47157 9.97141C9.59517 9.8478 9.66529 9.68059 9.66681 9.5058C9.66832 9.331 9.60113 9.1626 9.47969 9.03686L5.95102 5.50819Z" fill="#111928"/>
</svg>
