<svg width="28" height="28" viewBox="0 0 28 28" fill="none" xmlns="http://www.w3.org/2000/svg">
<path d="M21.875 5H20.6375C20.3764 3.73034 19.6855 2.58951 18.6814 1.76981C17.6773 0.950101 16.4212 0.501636 15.125 0.5L12.875 0.5C11.5788 0.501636 10.3227 0.950101 9.31859 1.76981C8.31445 2.58951 7.62361 3.73034 7.3625 5H6.125C4.63371 5.00179 3.204 5.59499 2.1495 6.6495C1.09499 7.704 0.501786 9.13371 0.5 10.625L0.5 14H27.5V10.625C27.4982 9.13371 26.905 7.704 25.8505 6.6495C24.796 5.59499 23.3663 5.00179 21.875 5ZM9.707 5C9.93884 4.34423 10.3676 3.7761 10.9347 3.37335C11.5018 2.97059 12.1795 2.75288 12.875 2.75H15.125C15.8205 2.75288 16.4982 2.97059 17.0653 3.37335C17.6324 3.7761 18.0612 4.34423 18.293 5H9.707Z" fill="#99A3F6"/>
<path d="M15.125 16.7C15.125 17.0183 15.0065 17.3235 14.7955 17.5485C14.5845 17.7736 14.2984 17.9 14 17.9C13.7016 17.9 13.4155 17.7736 13.2045 17.5485C12.9935 17.3235 12.875 17.0183 12.875 16.7V15.5H0.5V21.5C0.501786 23.0907 1.09499 24.6157 2.1495 25.7405C3.204 26.8653 4.63371 27.4981 6.125 27.5H21.875C23.3663 27.4981 24.796 26.8653 25.8505 25.7405C26.905 24.6157 27.4982 23.0907 27.5 21.5V15.5H15.125V16.7Z" fill="#99A3F6"/>
</svg>
