<svg width="24" height="32" viewBox="0 0 24 32" fill="none" xmlns="http://www.w3.org/2000/svg">
<path fill-rule="evenodd" clip-rule="evenodd" d="M0.599609 4.6C0.599609 3.59218 0.999965 2.62564 1.7126 1.913C2.42524 1.20036 3.39179 0.800003 4.39961 0.800003H13.113C14.1208 0.800218 15.0871 1.20072 15.7996 1.9134L22.2862 8.4C22.9989 9.11248 23.3994 10.0789 23.3996 11.0866V27.4C23.3996 28.4078 22.9993 29.3744 22.2866 30.087C21.574 30.7996 20.6074 31.2 19.5996 31.2H4.39961C3.39179 31.2 2.42524 30.7996 1.7126 30.087C0.999965 29.3744 0.599609 28.4078 0.599609 27.4V4.6ZM4.39961 16C4.39961 15.4961 4.59979 15.0128 4.95611 14.6565C5.31243 14.3002 5.7957 14.1 6.29961 14.1H17.6996C18.2035 14.1 18.6868 14.3002 19.0431 14.6565C19.3994 15.0128 19.5996 15.4961 19.5996 16C19.5996 16.5039 19.3994 16.9872 19.0431 17.3435C18.6868 17.6998 18.2035 17.9 17.6996 17.9H6.29961C5.7957 17.9 5.31243 17.6998 4.95611 17.3435C4.59979 16.9872 4.39961 16.5039 4.39961 16ZM6.29961 21.7C5.7957 21.7 5.31243 21.9002 4.95611 22.2565C4.59979 22.6128 4.39961 23.0961 4.39961 23.6C4.39961 24.1039 4.59979 24.5872 4.95611 24.9435C5.31243 25.2998 5.7957 25.5 6.29961 25.5H17.6996C18.2035 25.5 18.6868 25.2998 19.0431 24.9435C19.3994 24.5872 19.5996 24.1039 19.5996 23.6C19.5996 23.0961 19.3994 22.6128 19.0431 22.2565C18.6868 21.9002 18.2035 21.7 17.6996 21.7H6.29961Z" fill="#6B7280"/>
</svg>
