<svg width="17" height="20" viewBox="0 0 17 20" fill="none" xmlns="http://www.w3.org/2000/svg">
<path fill-rule="evenodd" clip-rule="evenodd" d="M10.6085 0.440794C10.9409 0.528394 11.2193 0.755172 11.3741 1.06357C11.9537 2.22397 12.3869 2.92841 12.8225 3.49961C13.2641 4.07801 13.7297 4.55078 14.4401 5.25998C16.0793 6.90038 16.9001 9.052 16.9001 11.2C16.9001 13.348 16.0793 15.4996 14.4401 17.14C11.1593 20.4196 5.8409 20.4196 2.5601 17.14C0.920901 15.4996 0.100098 13.348 0.100098 11.2C0.100098 9.052 0.920901 6.90038 2.5601 5.25998C2.9033 4.91678 3.4193 4.81478 3.8681 5.00078C4.3169 5.18558 4.6085 5.62362 4.6085 6.10842C4.6085 7.45242 4.6925 8.47601 5.0861 9.29321C5.3021 9.74201 5.6393 10.1812 6.2201 10.5736C6.3593 9.30043 6.6137 7.74881 6.9569 6.27761C7.2269 5.11841 7.56289 3.9616 7.96369 2.9968C8.16409 2.5132 8.3909 2.05477 8.6477 1.65757C8.8973 1.27117 9.21891 0.878833 9.63411 0.601633C9.92091 0.410833 10.2761 0.351994 10.6085 0.440794ZM11.0453 16.1452C9.6401 17.5516 7.36009 17.5516 5.95489 16.1452C5.25169 15.4432 4.9001 14.5216 4.9001 13.6C4.9001 13.6 5.9549 14.2 7.9001 14.2C7.9001 13 8.5001 9.4 9.4001 8.8C10.0001 10 10.3433 10.3516 11.0453 11.0548C11.7485 11.7568 12.1001 12.6784 12.1001 13.6C12.1001 14.5216 11.7485 15.4432 11.0453 16.1452Z" fill="#3E3E3E"/>
</svg>
