<svg width="12" height="12" viewBox="0 0 12 12" fill="none" xmlns="http://www.w3.org/2000/svg">
<path d="M2.62857 4.4381H0.782021C0.618776 4.4381 0.462217 4.4979 0.346785 4.60436C0.231353 4.71082 0.166504 4.8552 0.166504 5.00576V10.1147C0.166504 10.4158 0.296202 10.7046 0.527066 10.9175C0.75793 11.1304 1.07105 11.25 1.39754 11.25H2.01306C2.33955 11.25 2.65267 11.1304 2.88353 10.9175C3.11439 10.7046 3.24409 10.4158 3.24409 10.1147V5.00576C3.24409 4.8552 3.17924 4.71082 3.06381 4.60436C2.94838 4.4979 2.79182 4.4381 2.62857 4.4381Z" fill="#03543F"/>
<path d="M10.602 4.4381H8.16823L9.12721 1.88363C9.15867 1.64988 9.1005 1.41334 8.96276 1.21499C8.82502 1.01663 8.61639 0.86895 8.37302 0.797523C8.12964 0.726097 7.86684 0.735424 7.63013 0.823888C7.39342 0.912352 7.19772 1.07438 7.07692 1.28191C6.36549 2.40164 5.48997 3.42551 4.47513 4.32456V9.76614H4.5453C5.84342 10.0971 7.56195 10.6823 9.15306 10.6823C10.0148 10.6823 10.133 10.3838 10.3102 9.93474L11.7592 5.96112C11.8267 5.78962 11.8485 5.60563 11.8226 5.42472C11.7967 5.24382 11.7238 5.07135 11.6103 4.92191C11.4968 4.77247 11.3458 4.65048 11.1703 4.56626C10.9948 4.48204 10.7998 4.43807 10.602 4.4381Z" fill="#03543F"/>
</svg>
