<svg width="24" height="24" viewBox="0 0 24 24" fill="none" xmlns="http://www.w3.org/2000/svg">
<g clip-path="url(#clip0_14784_3895)">
<path d="M20.05 15.0508C20.111 14.6198 20.097 14.1908 20.001 13.7678C19.937 13.4838 20.073 13.1768 20.341 13.0038C20.839 12.6828 21.243 12.2458 21.543 11.7058C21.828 11.1908 21.977 10.5998 21.974 10.0058C21.977 9.4018 21.828 8.8108 21.543 8.2958C21.244 7.7558 20.839 7.3188 20.341 6.9978C20.073 6.8248 19.936 6.5188 20.001 6.2328C20.135 5.6398 20.115 5.0338 19.942 4.4288C19.612 3.2808 18.695 2.3638 17.546 2.0328C16.94 1.8608 16.334 1.8418 15.743 1.9748C15.456 2.0338 15.152 1.9018 14.979 1.6338C14.658 1.1358 14.222 0.7318 13.682 0.4318C12.638 -0.1462 11.339 -0.1472 10.294 0.4318C9.756 0.7308 9.32 1.1348 8.999 1.6328C8.826 1.9008 8.523 2.0378 8.234 1.9728C7.644 1.8408 7.037 1.8598 6.43 2.0328C5.282 2.3618 4.364 3.2798 4.036 4.4268C3.862 5.0328 3.842 5.6408 3.976 6.2328C4.04 6.5168 3.904 6.8238 3.636 6.9968C3.137 7.3188 2.733 7.7548 2.433 8.2948C2.148 8.8098 1.999 9.4008 2.002 9.9948C1.999 10.5988 2.148 11.1898 2.434 11.7058C2.733 12.2448 3.138 12.6808 3.636 13.0018C3.904 13.1758 4.041 13.4818 3.976 13.7668C3.878 14.1958 3.865 14.6328 3.929 15.0708L0 18.9998H5V23.9998L9.794 19.2058C9.954 19.3328 10.11 19.4648 10.295 19.5678C10.817 19.8568 11.403 20.0018 11.988 20.0018C12.573 20.0018 13.16 19.8568 13.683 19.5668C13.873 19.4618 14.033 19.3278 14.196 19.1968L19 24.0008V19.0008H24L20.05 15.0508ZM12.664 12.4138C12.286 12.7918 11.784 12.9998 11.25 12.9998C10.716 12.9998 10.214 12.7918 9.836 12.4138L7.346 9.9238L8.76 8.5098L11.25 10.9998L15.382 6.8678L16.796 8.2818L12.664 12.4138Z" fill="#3E3E3E"/>
</g>
<defs>
<clipPath id="clip0_14784_3895">
<rect width="24" height="24" fill="white"/>
</clipPath>
</defs>
</svg>
