<svg width="26" height="30" viewBox="0 0 26 30" fill="none" xmlns="http://www.w3.org/2000/svg">
<path d="M25.47 11.25H18C15.9325 11.25 14.25 9.5675 14.25 7.5V0.03C14.0488 0.01625 12.5975 0 12.3938 0H6.75C3.30375 0 0.5 2.80375 0.5 6.25V23.75C0.5 27.1963 3.30375 30 6.75 30H19.25C22.6963 30 25.5 27.1963 25.5 23.75V11.8562C25.5 11.6525 25.4838 11.4513 25.47 11.25ZM9.25 6.24875C10.6313 6.24875 11.75 7.3675 11.75 8.74875C11.75 10.13 10.6313 11.2487 9.25 11.2487C7.86875 11.2487 6.75 10.13 6.75 8.74875C6.75 7.3675 7.86875 6.24875 9.25 6.24875ZM5.82 14.2387C5.95625 14.06 7.21125 12.4987 9.2825 12.4987C11.3538 12.4987 12.6063 14.0612 12.7438 14.2387C13.1638 14.7863 13.06 15.5712 12.5113 15.9913C12.2838 16.165 12.0163 16.2487 11.7525 16.2487C11.3763 16.2487 11.005 16.08 10.7588 15.7588C10.7588 15.7588 10.1375 14.9987 9.2825 14.9987C8.4275 14.9987 7.81125 15.7513 7.805 15.7588C7.385 16.3075 6.6025 16.4125 6.0525 15.9913C5.505 15.5725 5.40125 14.7875 5.82 14.2387ZM19.25 26.25H6.75C6.05875 26.25 5.5 25.69 5.5 25C5.5 24.31 6.05875 23.75 6.75 23.75H19.25C19.9413 23.75 20.5 24.31 20.5 25C20.5 25.69 19.9413 26.25 19.25 26.25ZM19.25 21.25H6.75C6.05875 21.25 5.5 20.69 5.5 20C5.5 19.31 6.05875 18.75 6.75 18.75H19.25C19.9413 18.75 20.5 19.31 20.5 20C20.5 20.69 19.9413 21.25 19.25 21.25ZM18 8.75C17.31 8.75 16.75 8.19 16.75 7.5V1.1775C17.4088 1.555 18.0288 2.01 18.5813 2.56125L22.9363 6.91875C23.4888 7.47 23.9438 8.09 24.3213 8.74875L18 8.75Z" fill="#99A3F6"/>
</svg>
