<svg width="10" height="7" viewBox="0 0 10 7" fill="none" xmlns="http://www.w3.org/2000/svg">
<path d="M3.67269 6.99999C3.52036 7.00065 3.37384 6.93626 3.26447 6.82059L0.509635 3.90423C0.454726 3.84574 0.410913 3.77604 0.380699 3.69908C0.350484 3.62212 0.334459 3.53943 0.333538 3.45572C0.331679 3.28665 0.391457 3.12371 0.499721 3.00273C0.607985 2.88175 0.755868 2.81264 0.910836 2.81061C1.0658 2.80858 1.21516 2.8738 1.32606 2.99191L3.67502 5.47756L8.67385 0.181164C8.7849 0.0630521 8.93441 -0.00209614 9.08949 5.14605e-05C9.24456 0.00219906 9.39251 0.0714667 9.50077 0.192616C9.60904 0.313765 9.66875 0.476873 9.66678 0.646056C9.66481 0.815239 9.60132 0.976641 9.49027 1.09475L4.0809 6.82059C3.97153 6.93626 3.82501 7.00065 3.67269 6.99999Z" fill="#046C4E"/>
</svg>
