<svg width="12" height="12" viewBox="0 0 12 12" fill="none" xmlns="http://www.w3.org/2000/svg">
<path d="M5.99984 0.166626C2.78334 0.166626 0.166504 2.78346 0.166504 5.99996C0.166504 9.21646 2.78334 11.8333 5.99984 11.8333C9.21634 11.8333 11.8332 9.21646 11.8332 5.99996C11.8332 2.78346 9.21634 0.166626 5.99984 0.166626ZM6.3055 3.73079C6.33992 3.62521 6.43092 3.54821 6.54059 3.53188L7.19509 3.43679L7.48792 2.84354C7.58592 2.64521 7.91317 2.64521 8.01059 2.84354L8.30342 3.43679L8.95792 3.53188C9.06759 3.54763 9.15917 3.62521 9.193 3.73079C9.22684 3.83638 9.19884 3.95246 9.11892 4.03004L8.64525 4.49146L8.75725 5.14246C8.77592 5.25213 8.731 5.36296 8.64117 5.42771C8.59042 5.46446 8.53034 5.48371 8.46967 5.48371C8.42359 5.48371 8.37692 5.47263 8.33434 5.44988L7.74984 5.14246L7.16417 5.44988C7.065 5.50238 6.946 5.49304 6.85734 5.42771C6.7675 5.36296 6.72259 5.25154 6.74125 5.14246L6.85325 4.49146L6.37959 4.03004C6.30025 3.95246 6.27167 3.83638 6.3055 3.73079ZM2.8055 3.73079C2.83992 3.62579 2.93092 3.54821 3.04117 3.53246L3.69567 3.43679L3.9885 2.84413C4.0865 2.64579 4.41375 2.64579 4.51117 2.84413L4.804 3.43679L5.4585 3.53188C5.56817 3.54763 5.65975 3.62521 5.69359 3.73079C5.72742 3.83638 5.69942 3.95246 5.6195 4.03004L5.14584 4.49146L5.25784 5.14246C5.2765 5.25213 5.23159 5.36296 5.14175 5.42771C5.091 5.46446 5.03092 5.48371 4.97025 5.48371C4.92417 5.48371 4.8775 5.47263 4.83492 5.44988L4.24984 5.14246L3.66417 5.44988C3.565 5.50238 3.446 5.49304 3.35734 5.42771C3.2675 5.36296 3.22259 5.25154 3.24125 5.14246L3.35325 4.49146L2.87959 4.03004C2.80025 3.95246 2.77167 3.83638 2.8055 3.73079ZM5.99984 9.49996C4.22242 9.49996 2.7915 7.90454 2.7915 6.58329H3.37484C3.48684 6.69529 4.475 6.92338 5.99984 6.92338C7.52467 6.92338 8.51284 6.69529 8.63884 6.53079L9.20817 6.58329C9.20817 7.90454 7.77725 9.49996 5.99984 9.49996Z" fill="#03543F"/>
</svg>
