<svg width="14" height="13" viewBox="0 0 14 13" fill="none" xmlns="http://www.w3.org/2000/svg">
<path fill-rule="evenodd" clip-rule="evenodd" d="M3.0001 0.0996094C3.21227 0.0996094 3.41575 0.183895 3.56578 0.333924C3.71581 0.483953 3.8001 0.687436 3.8001 0.899609V1.69961H4.6001C4.81227 1.69961 5.01575 1.78389 5.16578 1.93392C5.31581 2.08395 5.4001 2.28744 5.4001 2.49961C5.4001 2.71178 5.31581 2.91527 5.16578 3.06529C5.01575 3.21532 4.81227 3.29961 4.6001 3.29961H3.8001V4.09961C3.8001 4.31178 3.71581 4.51527 3.56578 4.66529C3.41575 4.81532 3.21227 4.89961 3.0001 4.89961C2.78792 4.89961 2.58444 4.81532 2.43441 4.66529C2.28438 4.51527 2.2001 4.31178 2.2001 4.09961V3.29961H1.4001C1.18792 3.29961 0.984441 3.21532 0.834412 3.06529C0.684383 2.91527 0.600098 2.71178 0.600098 2.49961C0.600098 2.28744 0.684383 2.08395 0.834412 1.93392C0.984441 1.78389 1.18792 1.69961 1.4001 1.69961H2.2001V0.899609C2.2001 0.687436 2.28438 0.483953 2.43441 0.333924C2.58444 0.183895 2.78792 0.0996094 3.0001 0.0996094ZM3.0001 8.09961C3.21227 8.09961 3.41575 8.18389 3.56578 8.33392C3.71581 8.48395 3.8001 8.68744 3.8001 8.89961V9.69961H4.6001C4.81227 9.69961 5.01575 9.78389 5.16578 9.93392C5.31581 10.084 5.4001 10.2874 5.4001 10.4996C5.4001 10.7118 5.31581 10.9153 5.16578 11.0653C5.01575 11.2153 4.81227 11.2996 4.6001 11.2996H3.8001V12.0996C3.8001 12.3118 3.71581 12.5153 3.56578 12.6653C3.41575 12.8153 3.21227 12.8996 3.0001 12.8996C2.78792 12.8996 2.58444 12.8153 2.43441 12.6653C2.28438 12.5153 2.2001 12.3118 2.2001 12.0996V11.2996H1.4001C1.18792 11.2996 0.984441 11.2153 0.834412 11.0653C0.684383 10.9153 0.600098 10.7118 0.600098 10.4996C0.600098 10.2874 0.684383 10.084 0.834412 9.93392C0.984441 9.78389 1.18792 9.69961 1.4001 9.69961H2.2001V8.89961C2.2001 8.68744 2.28438 8.48395 2.43441 8.33392C2.58444 8.18389 2.78792 8.09961 3.0001 8.09961ZM8.6001 0.0996094C8.77665 0.0995524 8.94826 0.1579 9.08819 0.265559C9.22812 0.373218 9.3285 0.524141 9.3737 0.694809L10.3169 4.25961L13.0001 5.80681C13.1217 5.87703 13.2227 5.97802 13.2929 6.09963C13.3631 6.22124 13.4001 6.35919 13.4001 6.49961C13.4001 6.64003 13.3631 6.77798 13.2929 6.89959C13.2227 7.0212 13.1217 7.12219 13.0001 7.19241L10.3169 8.74041L9.3729 12.3044C9.32762 12.4749 9.22725 12.6257 9.08741 12.7332C8.94758 12.8408 8.77611 12.8991 8.5997 12.8991C8.42329 12.8991 8.25182 12.8408 8.11198 12.7332C7.97214 12.6257 7.87178 12.4749 7.8265 12.3044L6.8833 8.73961L4.2001 7.19241C4.07849 7.12219 3.97751 7.0212 3.9073 6.89959C3.83709 6.77798 3.80013 6.64003 3.80013 6.49961C3.80013 6.35919 3.83709 6.22124 3.9073 6.09963C3.97751 5.97802 4.07849 5.87703 4.2001 5.80681L6.8833 4.25881L7.8273 0.694809C7.87246 0.524274 7.97272 0.373448 8.11249 0.265803C8.25226 0.158157 8.42368 0.0997288 8.6001 0.0996094Z" fill="#046C4E"/>
</svg>
