<svg width="12" height="14" viewBox="0 0 12 14" fill="none" xmlns="http://www.w3.org/2000/svg">
<path fill-rule="evenodd" clip-rule="evenodd" d="M5.20002 0.599609C5.0515 0.599689 4.90592 0.641116 4.7796 0.719251C4.65329 0.797387 4.55122 0.909145 4.48482 1.04201L3.90562 2.19961H1.20002C0.987851 2.19961 0.784368 2.28389 0.634339 2.43392C0.48431 2.58395 0.400024 2.78744 0.400024 2.99961C0.400024 3.21178 0.48431 3.41527 0.634339 3.56529C0.784368 3.71532 0.987851 3.79961 1.20002 3.79961V11.7996C1.20002 12.224 1.3686 12.6309 1.66865 12.931C1.96871 13.231 2.37568 13.3996 2.80002 13.3996H9.20003C9.62437 13.3996 10.0313 13.231 10.3314 12.931C10.6315 12.6309 10.8 12.224 10.8 11.7996V3.79961C11.0122 3.79961 11.2157 3.71532 11.3657 3.56529C11.5157 3.41527 11.6 3.21178 11.6 2.99961C11.6 2.78744 11.5157 2.58395 11.3657 2.43392C11.2157 2.28389 11.0122 2.19961 10.8 2.19961H8.09443L7.51522 1.04201C7.44883 0.909145 7.34676 0.797387 7.22045 0.719251C7.09413 0.641116 6.94855 0.599689 6.80002 0.599609H5.20002ZM3.60002 5.39961C3.60002 5.18744 3.68431 4.98395 3.83434 4.83392C3.98437 4.68389 4.18785 4.59961 4.40002 4.59961C4.6122 4.59961 4.81568 4.68389 4.96571 4.83392C5.11574 4.98395 5.20002 5.18744 5.20002 5.39961V10.1996C5.20002 10.4118 5.11574 10.6153 4.96571 10.7653C4.81568 10.9153 4.6122 10.9996 4.40002 10.9996C4.18785 10.9996 3.98437 10.9153 3.83434 10.7653C3.68431 10.6153 3.60002 10.4118 3.60002 10.1996V5.39961ZM7.60003 4.59961C7.38785 4.59961 7.18437 4.68389 7.03434 4.83392C6.88431 4.98395 6.80002 5.18744 6.80002 5.39961V10.1996C6.80002 10.4118 6.88431 10.6153 7.03434 10.7653C7.18437 10.9153 7.38785 10.9996 7.60003 10.9996C7.8122 10.9996 8.01568 10.9153 8.16571 10.7653C8.31574 10.6153 8.40003 10.4118 8.40003 10.1996V5.39961C8.40003 5.18744 8.31574 4.98395 8.16571 4.83392C8.01568 4.68389 7.8122 4.59961 7.60003 4.59961Z" fill="#C81E1E"/>
</svg>
