<svg width="16" height="16" viewBox="0 0 16 16" fill="none" xmlns="http://www.w3.org/2000/svg">
<g clip-path="url(#clip0_465_5249)">
<path d="M12.6931 3.73312L14.0231 3.06835C14.2443 2.9578 14.2443 2.6422 14.0231 2.53165L12.6931 1.86688L12.0283 0.536877C11.9178 0.315713 11.6022 0.315713 11.4916 0.536876L10.8269 1.86688L9.49687 2.53165C9.2757 2.6422 9.2757 2.9578 9.49687 3.06835L10.8269 3.73312L11.4916 5.06312C11.6022 5.28429 11.9178 5.28429 12.0283 5.06312L12.6931 3.73312Z" fill="#5D5BE0"/>
<path fill-rule="evenodd" clip-rule="evenodd" d="M14.664 4.6909C14.0297 5.71662 12.8946 6.4 11.6 6.4C9.61178 6.4 8.00001 4.78823 8.00001 2.8C8.00001 1.66909 8.52147 0.659982 9.33707 0H8.00001V0.00301516C7.84647 0.0011705 7.71667 0 7.67674 0H4.66674C2.82874 0 1.3334 1.49533 1.3334 3.33333V12.6667C1.3334 14.5047 2.82874 16 4.66674 16H11.3334C13.1714 16 14.6667 14.5047 14.6667 12.6667V6.32333C14.6667 6.28548 14.6657 6.24779 14.664 6.2102V4.6909ZM6.00007 3.33267C6.73674 3.33267 7.3334 3.92933 7.3334 4.666C7.3334 5.40267 6.73674 5.99933 6.00007 5.99933C5.2634 5.99933 4.66674 5.40267 4.66674 4.666C4.66674 3.92933 5.2634 3.33267 6.00007 3.33267ZM4.17074 7.594C4.2434 7.49867 4.91274 6.666 6.0174 6.666C7.12207 6.666 7.79007 7.49933 7.8634 7.594C8.0874 7.886 8.03207 8.30467 7.7394 8.52867C7.61807 8.62133 7.4754 8.666 7.33474 8.666C7.13407 8.666 6.93607 8.576 6.80474 8.40467C6.80474 8.40467 6.4734 7.99933 6.0174 7.99933C5.56471 7.99933 5.23738 8.39502 5.2294 8.40467C5.0054 8.69733 4.58807 8.75333 4.29474 8.52867C4.00274 8.30533 3.9474 7.88667 4.17074 7.594ZM11.3334 14H4.66674C4.29807 14 4.00007 13.7013 4.00007 13.3333C4.00007 12.9653 4.29807 12.6667 4.66674 12.6667H11.3334C11.7021 12.6667 12.0001 12.9653 12.0001 13.3333C12.0001 13.7013 11.7021 14 11.3334 14ZM11.3334 11.3333H4.66674C4.29807 11.3333 4.00007 11.0347 4.00007 10.6667C4.00007 10.2987 4.29807 10 4.66674 10H11.3334C11.7021 10 12.0001 10.2987 12.0001 10.6667C12.0001 11.0347 11.7021 11.3333 11.3334 11.3333Z" fill="#5D5BE0"/>
</g>
<defs>
<clipPath id="clip0_465_5249">
<rect width="16" height="16" fill="white"/>
</clipPath>
</defs>
</svg>
