<svg width="14" height="12" viewBox="0 0 14 12" fill="none" xmlns="http://www.w3.org/2000/svg">
<rect width="14" height="12" rx="2" fill="white"/>
<mask id="mask0_346_3459" style="mask-type:luminance" maskUnits="userSpaceOnUse" x="0" y="0" width="14" height="12">
<rect width="14" height="12" rx="2" fill="white"/>
</mask>
<g mask="url(#mask0_346_3459)">
<path fill-rule="evenodd" clip-rule="evenodd" d="M14 0H0V0.8H14V0ZM14 1.6H0V2.4H14V1.6ZM0 3.2H14V4H0V3.2ZM14 4.8H0V5.6H14V4.8ZM0 6.4H14V7.2H0V6.4ZM14 8H0V8.8H14V8ZM0 9.6H14V10.4H0V9.6ZM14 11.2H0V12H14V11.2Z" fill="#D02F44"/>
<rect width="6" height="5.6" fill="#46467F"/>
<g filter="url(#filter0_d_346_3459)">
<path fill-rule="evenodd" clip-rule="evenodd" d="M1.33335 1.1998C1.33335 1.42072 1.18412 1.5998 1.00002 1.5998C0.815925 1.5998 0.666687 1.42072 0.666687 1.1998C0.666687 0.978891 0.815925 0.799805 1.00002 0.799805C1.18412 0.799805 1.33335 0.978891 1.33335 1.1998ZM2.66669 1.1998C2.66669 1.42072 2.51745 1.5998 2.33335 1.5998C2.14926 1.5998 2.00002 1.42072 2.00002 1.1998C2.00002 0.978891 2.14926 0.799805 2.33335 0.799805C2.51745 0.799805 2.66669 0.978891 2.66669 1.1998ZM3.66669 1.5998C3.85078 1.5998 4.00002 1.42072 4.00002 1.1998C4.00002 0.978891 3.85078 0.799805 3.66669 0.799805C3.48259 0.799805 3.33335 0.978891 3.33335 1.1998C3.33335 1.42072 3.48259 1.5998 3.66669 1.5998ZM5.33335 1.1998C5.33335 1.42072 5.18412 1.5998 5.00002 1.5998C4.81593 1.5998 4.66669 1.42072 4.66669 1.1998C4.66669 0.978891 4.81593 0.799805 5.00002 0.799805C5.18412 0.799805 5.33335 0.978891 5.33335 1.1998ZM1.66669 2.3998C1.85078 2.3998 2.00002 2.22072 2.00002 1.9998C2.00002 1.77889 1.85078 1.5998 1.66669 1.5998C1.48259 1.5998 1.33335 1.77889 1.33335 1.9998C1.33335 2.22072 1.48259 2.3998 1.66669 2.3998ZM3.33335 1.9998C3.33335 2.22072 3.18412 2.3998 3.00002 2.3998C2.81593 2.3998 2.66669 2.22072 2.66669 1.9998C2.66669 1.77889 2.81593 1.5998 3.00002 1.5998C3.18412 1.5998 3.33335 1.77889 3.33335 1.9998ZM4.33335 2.3998C4.51745 2.3998 4.66669 2.22072 4.66669 1.9998C4.66669 1.77889 4.51745 1.5998 4.33335 1.5998C4.14926 1.5998 4.00002 1.77889 4.00002 1.9998C4.00002 2.22072 4.14926 2.3998 4.33335 2.3998ZM5.33335 2.7998C5.33335 3.02072 5.18412 3.1998 5.00002 3.1998C4.81593 3.1998 4.66669 3.02072 4.66669 2.7998C4.66669 2.57889 4.81593 2.3998 5.00002 2.3998C5.18412 2.3998 5.33335 2.57889 5.33335 2.7998ZM3.66669 3.1998C3.85078 3.1998 4.00002 3.02072 4.00002 2.7998C4.00002 2.57889 3.85078 2.3998 3.66669 2.3998C3.48259 2.3998 3.33335 2.57889 3.33335 2.7998C3.33335 3.02072 3.48259 3.1998 3.66669 3.1998ZM2.66669 2.7998C2.66669 3.02072 2.51745 3.1998 2.33335 3.1998C2.14926 3.1998 2.00002 3.02072 2.00002 2.7998C2.00002 2.57889 2.14926 2.3998 2.33335 2.3998C2.51745 2.3998 2.66669 2.57889 2.66669 2.7998ZM1.00002 3.1998C1.18412 3.1998 1.33335 3.02072 1.33335 2.7998C1.33335 2.57889 1.18412 2.3998 1.00002 2.3998C0.815925 2.3998 0.666687 2.57889 0.666687 2.7998C0.666687 3.02072 0.815925 3.1998 1.00002 3.1998ZM2.00002 3.5998C2.00002 3.82072 1.85078 3.9998 1.66669 3.9998C1.48259 3.9998 1.33335 3.82072 1.33335 3.5998C1.33335 3.37889 1.48259 3.1998 1.66669 3.1998C1.85078 3.1998 2.00002 3.37889 2.00002 3.5998ZM3.00002 3.9998C3.18412 3.9998 3.33335 3.82072 3.33335 3.5998C3.33335 3.37889 3.18412 3.1998 3.00002 3.1998C2.81593 3.1998 2.66669 3.37889 2.66669 3.5998C2.66669 3.82072 2.81593 3.9998 3.00002 3.9998ZM4.66669 3.5998C4.66669 3.82072 4.51745 3.9998 4.33335 3.9998C4.14926 3.9998 4.00002 3.82072 4.00002 3.5998C4.00002 3.37889 4.14926 3.1998 4.33335 3.1998C4.51745 3.1998 4.66669 3.37889 4.66669 3.5998ZM5.00002 4.79981C5.18412 4.79981 5.33335 4.62072 5.33335 4.3998C5.33335 4.17889 5.18412 3.9998 5.00002 3.9998C4.81593 3.9998 4.66669 4.17889 4.66669 4.3998C4.66669 4.62072 4.81593 4.79981 5.00002 4.79981ZM4.00002 4.3998C4.00002 4.62072 3.85078 4.79981 3.66669 4.79981C3.48259 4.79981 3.33335 4.62072 3.33335 4.3998C3.33335 4.17889 3.48259 3.9998 3.66669 3.9998C3.85078 3.9998 4.00002 4.17889 4.00002 4.3998ZM2.33335 4.79981C2.51745 4.79981 2.66669 4.62072 2.66669 4.3998C2.66669 4.17889 2.51745 3.9998 2.33335 3.9998C2.14926 3.9998 2.00002 4.17889 2.00002 4.3998C2.00002 4.62072 2.14926 4.79981 2.33335 4.79981ZM1.33335 4.3998C1.33335 4.62072 1.18412 4.79981 1.00002 4.79981C0.815925 4.79981 0.666687 4.62072 0.666687 4.3998C0.666687 4.17889 0.815925 3.9998 1.00002 3.9998C1.18412 3.9998 1.33335 4.17889 1.33335 4.3998Z" fill="url(#paint0_linear_346_3459)"/>
</g>
</g>
<defs>
<filter id="filter0_d_346_3459" x="0.666687" y="0.799805" width="4.66669" height="5" filterUnits="userSpaceOnUse" color-interpolation-filters="sRGB">
<feFlood flood-opacity="0" result="BackgroundImageFix"/>
<feColorMatrix in="SourceAlpha" type="matrix" values="0 0 0 0 0 0 0 0 0 0 0 0 0 0 0 0 0 0 127 0" result="hardAlpha"/>
<feOffset dy="1"/>
<feColorMatrix type="matrix" values="0 0 0 0 0 0 0 0 0 0 0 0 0 0 0 0 0 0 0.06 0"/>
<feBlend mode="normal" in2="BackgroundImageFix" result="effect1_dropShadow_346_3459"/>
<feBlend mode="normal" in="SourceGraphic" in2="effect1_dropShadow_346_3459" result="shape"/>
</filter>
<linearGradient id="paint0_linear_346_3459" x1="0.666687" y1="0.799805" x2="0.666687" y2="4.7998" gradientUnits="userSpaceOnUse">
<stop stop-color="white"/>
<stop offset="1" stop-color="#F0F0F0"/>
</linearGradient>
</defs>
</svg>
