<svg width="14" height="16" viewBox="0 0 14 16" fill="none" xmlns="http://www.w3.org/2000/svg">
<path d="M1.38256 15.3845L1.38261 15.3844L1.37268 15.3801C1.11843 15.2718 0.89633 15.0829 0.738836 14.8334C0.581172 14.5837 0.496949 14.2867 0.500084 13.9815H0.500111V13.9763V3.3634C0.501044 2.59563 0.79026 1.86477 1.29635 1.32983C1.80155 0.795848 2.48038 0.50097 3.18222 0.5H10.8178C11.5196 0.50097 12.1984 0.795848 12.7036 1.32983C13.2098 1.86482 13.499 2.59579 13.4999 3.36365V13.9763H13.4998L13.4999 13.9817C13.5032 14.2867 13.4193 14.5835 13.2619 14.8333C13.1048 15.0827 12.8831 15.2718 12.6292 15.3804L12.6291 15.3804L12.6233 15.383C12.4506 15.4595 12.2664 15.4988 12.0809 15.4995C11.9027 15.499 11.7257 15.4613 11.5596 15.3877C11.3931 15.3138 11.2402 15.205 11.1106 15.066L11.1106 15.066L11.1072 15.0624L7.43472 11.2017L7.07245 11.5463L7.43472 11.2017C7.19822 10.9531 6.80177 10.9531 6.56527 11.2017L2.89278 15.0624L2.89276 15.0623L2.88917 15.0662C2.6925 15.2774 2.44373 15.4174 2.1771 15.473C1.91072 15.5285 1.6343 15.4982 1.38256 15.3845Z" stroke="#7683F0"/>
</svg>
