<svg width="12" height="16" viewBox="0 0 12 16" fill="none" xmlns="http://www.w3.org/2000/svg">
<path d="M6 0.5C4.40934 0.501819 2.88433 1.15955 1.7595 2.32889C0.634683 3.49823 0.00190936 5.08371 0 6.73749C0 8.34374 1.19627 10.8575 3.55576 14.2087C3.83665 14.6088 4.20442 14.9343 4.62916 15.1587C5.05389 15.383 5.52358 15.5 6 15.5C6.47642 15.5 6.94611 15.383 7.37084 15.1587C7.79558 14.9343 8.16335 14.6088 8.44424 14.2087C10.8037 10.8575 12 8.34374 12 6.73749C11.9981 5.08371 11.3653 3.49823 10.2405 2.32889C9.11567 1.15955 7.59066 0.501819 6 0.5ZM6 9.22374C5.52442 9.22374 5.05952 9.07711 4.66409 8.80241C4.26866 8.52771 3.96046 8.13726 3.77847 7.68045C3.59647 7.22363 3.54885 6.72097 3.64163 6.23601C3.73441 5.75106 3.96343 5.30561 4.29971 4.95598C4.636 4.60635 5.06445 4.36824 5.53089 4.27178C5.99733 4.17532 6.48081 4.22483 6.92019 4.41405C7.35957 4.60326 7.73511 4.92369 7.99932 5.33482C8.26354 5.74594 8.40457 6.22929 8.40457 6.72374C8.40457 7.38678 8.15123 8.02266 7.70029 8.4915C7.24934 8.96034 6.63773 9.22374 6 9.22374Z" fill="#6B7280"/>
</svg>
