<svg width="12" height="12" viewBox="0 0 12 12" fill="none" xmlns="http://www.w3.org/2000/svg">
<path d="M11.9778 8.66637C11.8119 7.16815 10.5392 5.99887 8.998 5.99887C5.24183 6.09585 4.9504 11.4538 8.64707 11.9753C10.5302 12.2247 12.2138 10.5505 11.9778 8.66587V8.66637ZM9.99777 9.99812C9.80232 10.1936 9.48639 10.1936 9.29093 9.99812L8.64457 9.35174C8.55059 9.25776 8.49811 9.13078 8.49811 8.99831V7.9985C8.50111 7.34462 9.49538 7.34512 9.49788 7.9985V8.79135L9.99777 9.29125C10.1932 9.48672 10.1932 9.80266 9.99777 9.99812ZM8.998 4.99906C10.1942 4.99906 11.2645 5.52696 11.9973 6.35931V4.49916C11.9973 3.12091 10.8761 1.99962 9.49788 1.99962H8.94751C8.71506 0.860338 7.70578 0 6.49855 0H5.49878C4.29204 0 3.28227 0.860338 3.04982 1.99962H2.49944C1.12125 1.99962 0 3.12091 0 4.49916V5.99887H6.35908C7.06343 5.37849 7.98572 4.99906 8.998 4.99906ZM5.49878 0.999812H6.49855C7.14941 0.999812 7.69928 1.41923 7.90624 1.99962H4.09159C4.29854 1.41923 4.84842 0.999812 5.49928 0.999812H5.49878ZM6.35908 11.9977H2.49944C1.12125 11.9977 0 10.8765 0 9.49822V6.99869H5.53827C4.56898 8.55289 4.97239 10.8605 6.35908 11.9977Z" fill="#42389D"/>
</svg>
