<svg width="16" height="16" viewBox="0 0 16 16" fill="none" xmlns="http://www.w3.org/2000/svg">
<path d="M15.04 5.02474C10.9606 0.950738 5.03929 0.950738 0.95996 5.02474C0.569293 5.41474 0.568626 6.04807 0.959293 6.43941C1.34996 6.83074 1.98263 6.83074 2.37396 6.44007C5.63463 3.1834 10.3666 3.1834 13.6273 6.44007C13.8226 6.63474 14.4193 6.98607 15.042 6.43941C15.4573 6.07474 15.4313 5.41541 15.0413 5.02474H15.04Z" fill="#5521B5"/>
<path d="M3.49328 8.2541C3.10262 8.6441 3.10195 9.27744 3.49262 9.66877C3.88328 10.0601 4.51595 10.0601 4.90728 9.66944C6.78595 7.79277 9.21529 7.79277 11.094 9.66944C11.2893 9.8641 11.9226 10.2148 12.5086 9.66877C12.9126 9.2921 12.898 8.64477 12.508 8.2541C9.85462 5.6041 6.14795 5.6041 3.49395 8.2541H3.49328Z" fill="#5521B5"/>
<path d="M8.00005 10.1309C6.77872 10.1309 6.05005 10.8569 6.05005 12.0742C6.05005 13.2915 6.77872 14.0169 8.00005 14.0169C9.22138 14.0169 9.95005 13.2909 9.95005 12.0742C9.95005 10.8575 9.22138 10.1309 8.00005 10.1309Z" fill="#5521B5"/>
</svg>
