<svg width="10" height="8" viewBox="0 0 10 8" fill="none" xmlns="http://www.w3.org/2000/svg">
<mask id="path-1-inside-1_260_3524" fill="white">
<path fill-rule="evenodd" clip-rule="evenodd" d="M9.69494 0.704951C9.82617 0.83622 9.89989 1.01424 9.89989 1.19985C9.89989 1.38547 9.82617 1.56348 9.69494 1.69475L4.09494 7.29475C3.96367 7.42598 3.78566 7.4997 3.60004 7.4997C3.41443 7.4997 3.23641 7.42598 3.10514 7.29475L0.305141 4.49475C0.17763 4.36273 0.107074 4.18591 0.108669 4.00237C0.110264 3.81883 0.183882 3.64326 0.313668 3.51348C0.443454 3.38369 0.619022 3.31007 0.80256 3.30848C0.986098 3.30688 1.16292 3.37744 1.29494 3.50495L3.60004 5.81005L8.70514 0.704951C8.83641 0.573721 9.01443 0.5 9.20004 0.5C9.38566 0.5 9.56367 0.573721 9.69494 0.704951Z"/>
</mask>
<path fill-rule="evenodd" clip-rule="evenodd" d="M9.69494 0.704951C9.82617 0.83622 9.89989 1.01424 9.89989 1.19985C9.89989 1.38547 9.82617 1.56348 9.69494 1.69475L4.09494 7.29475C3.96367 7.42598 3.78566 7.4997 3.60004 7.4997C3.41443 7.4997 3.23641 7.42598 3.10514 7.29475L0.305141 4.49475C0.17763 4.36273 0.107074 4.18591 0.108669 4.00237C0.110264 3.81883 0.183882 3.64326 0.313668 3.51348C0.443454 3.38369 0.619022 3.31007 0.80256 3.30848C0.986098 3.30688 1.16292 3.37744 1.29494 3.50495L3.60004 5.81005L8.70514 0.704951C8.83641 0.573721 9.01443 0.5 9.20004 0.5C9.38566 0.5 9.56367 0.573721 9.69494 0.704951Z" fill="#1F2A37"/>
<path d="M9.69494 0.704951L10.7558 -0.355549L10.7554 -0.35587L9.69494 0.704951ZM9.89989 1.19985H11.3999H9.89989ZM9.69494 1.69475L10.7556 2.75541L10.7558 2.75525L9.69494 1.69475ZM4.09494 7.29475L5.15544 8.35557L5.1556 8.35541L4.09494 7.29475ZM3.10514 7.29475L2.04448 8.35541L2.04464 8.35557L3.10514 7.29475ZM0.305141 4.49475L-0.773791 5.53682L-0.764736 5.54619L-0.755519 5.55541L0.305141 4.49475ZM1.29494 3.50495L2.3556 2.44429L2.34638 2.43507L2.33701 2.42602L1.29494 3.50495ZM3.60004 5.81005L2.53938 6.87071L3.60004 7.93137L4.6607 6.87071L3.60004 5.81005ZM8.70514 0.704951L7.64464 -0.35587L7.64448 -0.35571L8.70514 0.704951ZM9.20004 0.5V2V0.5ZM8.63412 1.76545C8.48414 1.61543 8.39989 1.41198 8.39989 1.19985H11.3999C11.3999 0.616492 11.1682 0.0570134 10.7558 -0.355549L8.63412 1.76545ZM8.39989 1.19985C8.39989 0.987722 8.48414 0.784274 8.63412 0.63425L10.7558 2.75525C11.1682 2.34269 11.3999 1.78321 11.3999 1.19985H8.39989ZM8.63428 0.63409L3.03428 6.23409L5.1556 8.35541L10.7556 2.75541L8.63428 0.63409ZM3.03444 6.23393C3.18446 6.08395 3.38791 5.9997 3.60004 5.9997V8.9997C4.1834 8.9997 4.74288 8.76801 5.15544 8.35557L3.03444 6.23393ZM3.60004 5.9997C3.81217 5.9997 4.01562 6.08395 4.16564 6.23393L2.04464 8.35557C2.4572 8.76801 3.01668 8.9997 3.60004 8.9997V5.9997ZM4.1658 6.23409L1.3658 3.43409L-0.755519 5.55541L2.04448 8.35541L4.1658 6.23409ZM1.38407 3.45268C1.5298 3.60356 1.61044 3.80565 1.60861 4.0154L-1.39127 3.98934C-1.39629 4.56617 -1.17454 5.12189 -0.773791 5.53682L1.38407 3.45268ZM1.60861 4.0154C1.60679 4.22516 1.52265 4.42581 1.37433 4.57414L-0.746992 2.45282C-1.15489 2.86072 -1.38626 3.4125 -1.39127 3.98934L1.60861 4.0154ZM1.37433 4.57414C1.226 4.72246 1.02535 4.8066 0.815594 4.80842L0.789526 1.80854C0.212693 1.81355 -0.339094 2.04492 -0.746992 2.45282L1.37433 4.57414ZM0.815594 4.80842C0.605837 4.81025 0.403755 4.72961 0.252873 4.58388L2.33701 2.42602C1.92208 2.02527 1.36636 1.80352 0.789526 1.80854L0.815594 4.80842ZM0.234281 4.56561L2.53938 6.87071L4.6607 4.74939L2.3556 2.44429L0.234281 4.56561ZM4.6607 6.87071L9.7658 1.76561L7.64448 -0.35571L2.53938 4.74939L4.6607 6.87071ZM9.76564 1.76577C9.61562 1.91575 9.41217 2 9.20004 2V-1C8.61668 -1 8.0572 -0.768305 7.64464 -0.35587L9.76564 1.76577ZM9.20004 2C8.98791 2 8.78446 1.91575 8.63444 1.76577L10.7554 -0.35587C10.3429 -0.768306 9.7834 -1 9.20004 -1V2Z" fill="white" mask="url(#path-1-inside-1_260_3524)"/>
</svg>
