<svg width="12" height="14" viewBox="0 0 12 14" fill="none" xmlns="http://www.w3.org/2000/svg">
<path fill-rule="evenodd" clip-rule="evenodd" d="M5.1999 0.600098C5.05137 0.600177 4.9058 0.641604 4.77948 0.71974C4.65317 0.797875 4.5511 0.909633 4.4847 1.0425L3.9055 2.2001H1.1999C0.987729 2.2001 0.784246 2.28438 0.634217 2.43441C0.484188 2.58444 0.399902 2.78792 0.399902 3.0001C0.399902 3.21227 0.484188 3.41575 0.634217 3.56578C0.784246 3.71581 0.987729 3.8001 1.1999 3.8001V11.8001C1.1999 12.2244 1.36847 12.6314 1.66853 12.9315C1.96859 13.2315 2.37556 13.4001 2.7999 13.4001H9.1999C9.62425 13.4001 10.0312 13.2315 10.3313 12.9315C10.6313 12.6314 10.7999 12.2244 10.7999 11.8001V3.8001C11.0121 3.8001 11.2156 3.71581 11.3656 3.56578C11.5156 3.41575 11.5999 3.21227 11.5999 3.0001C11.5999 2.78792 11.5156 2.58444 11.3656 2.43441C11.2156 2.28438 11.0121 2.2001 10.7999 2.2001H8.0943L7.5151 1.0425C7.44871 0.909633 7.34664 0.797875 7.22032 0.71974C7.09401 0.641604 6.94843 0.600177 6.7999 0.600098H5.1999ZM3.5999 5.4001C3.5999 5.18792 3.68419 4.98444 3.83422 4.83441C3.98425 4.68438 4.18773 4.6001 4.3999 4.6001C4.61208 4.6001 4.81556 4.68438 4.96559 4.83441C5.11562 4.98444 5.1999 5.18792 5.1999 5.4001V10.2001C5.1999 10.4123 5.11562 10.6158 4.96559 10.7658C4.81556 10.9158 4.61208 11.0001 4.3999 11.0001C4.18773 11.0001 3.98425 10.9158 3.83422 10.7658C3.68419 10.6158 3.5999 10.4123 3.5999 10.2001V5.4001ZM7.5999 4.6001C7.38773 4.6001 7.18425 4.68438 7.03422 4.83441C6.88419 4.98444 6.7999 5.18792 6.7999 5.4001V10.2001C6.7999 10.4123 6.88419 10.6158 7.03422 10.7658C7.18425 10.9158 7.38773 11.0001 7.5999 11.0001C7.81208 11.0001 8.01556 10.9158 8.16559 10.7658C8.31562 10.6158 8.3999 10.4123 8.3999 10.2001V5.4001C8.3999 5.18792 8.31562 4.98444 8.16559 4.83441C8.01556 4.68438 7.81208 4.6001 7.5999 4.6001Z" fill="white"/>
</svg>
