<svg width="14" height="14" viewBox="0 0 14 14" fill="none" xmlns="http://www.w3.org/2000/svg">
<path d="M10.1377 5.32016C10.0127 5.19198 9.84312 5.11997 9.66634 5.11997C9.48956 5.11997 9.32003 5.19198 9.19501 5.32016L7.66634 6.88803V1.01726C7.66634 0.835912 7.5961 0.661995 7.47108 0.533765C7.34606 0.405535 7.17649 0.333496 6.99967 0.333496C6.82286 0.333496 6.65329 0.405535 6.52827 0.533765C6.40325 0.661995 6.33301 0.835912 6.33301 1.01726V6.88803L4.80434 5.32016C4.74284 5.25486 4.66928 5.20277 4.58794 5.16693C4.50661 5.1311 4.41913 5.11223 4.33061 5.11144C4.24209 5.11066 4.1543 5.12796 4.07237 5.16234C3.99044 5.19672 3.91601 5.24749 3.85341 5.31169C3.79082 5.37589 3.74131 5.45223 3.70779 5.53626C3.67427 5.62029 3.65741 5.71033 3.65817 5.80112C3.65894 5.89191 3.67733 5.98163 3.71227 6.06505C3.74721 6.14848 3.798 6.22393 3.86167 6.287L6.52834 9.02204C6.59027 9.08572 6.66384 9.13624 6.74483 9.17071C6.82582 9.20518 6.91265 9.22292 7.00034 9.22292C7.08803 9.22292 7.17486 9.20518 7.25585 9.17071C7.33685 9.13624 7.41041 9.08572 7.47234 9.02204L10.139 6.287C10.2638 6.1586 10.3338 5.98461 10.3335 5.8033C10.3333 5.62199 10.2628 5.44821 10.1377 5.32016Z" fill="#1F2A37"/>
<path d="M12.333 8.19674H10.633L8.64968 10.2309C8.433 10.4532 8.17577 10.6295 7.89266 10.7498C7.60955 10.8701 7.30611 10.932 6.99967 10.932C6.69324 10.932 6.3898 10.8701 6.10669 10.7498C5.82358 10.6295 5.56635 10.4532 5.34967 10.2309L3.36634 8.19674H1.66634C1.31272 8.19674 0.973581 8.34082 0.723532 8.59728C0.473484 8.85374 0.333008 9.20158 0.333008 9.56427V12.2993C0.333008 12.662 0.473484 13.0098 0.723532 13.2663C0.973581 13.5228 1.31272 13.6668 1.66634 13.6668H12.333C12.6866 13.6668 13.0258 13.5228 13.2758 13.2663C13.5259 13.0098 13.6663 12.662 13.6663 12.2993V9.56427C13.6663 9.20158 13.5259 8.85374 13.2758 8.59728C13.0258 8.34082 12.6866 8.19674 12.333 8.19674ZM10.6663 12.2993C10.4686 12.2993 10.2752 12.2392 10.1108 12.1265C9.94632 12.0138 9.81815 11.8536 9.74246 11.6662C9.66677 11.4788 9.64697 11.2725 9.68556 11.0736C9.72414 10.8746 9.81938 10.6919 9.95924 10.5484C10.0991 10.405 10.2773 10.3073 10.4713 10.2677C10.6652 10.2282 10.8663 10.2485 11.049 10.3261C11.2318 10.4037 11.3879 10.5352 11.4978 10.7039C11.6077 10.8725 11.6663 11.0708 11.6663 11.2737C11.6663 11.5457 11.561 11.8066 11.3734 11.9989C11.1859 12.1912 10.9316 12.2993 10.6663 12.2993Z" fill="#1F2A37"/>
</svg>
