<svg width="35" height="41" viewBox="0 0 35 41" fill="none" xmlns="http://www.w3.org/2000/svg">
<path d="M34.1267 15.5H24.1667C21.41 15.5 19.1667 13.2567 19.1667 10.5V0.54C18.8983 0.521667 16.9633 0.5 16.6917 0.5H9.16667C4.57167 0.5 0.833332 4.23833 0.833332 8.83333V32.1667C0.833332 36.7617 4.57167 40.5 9.16667 40.5H25.8333C30.4283 40.5 34.1667 36.7617 34.1667 32.1667V16.3083C34.1667 16.0367 34.145 15.7683 34.1267 15.5ZM12.5 8.83167C14.3417 8.83167 15.8333 10.3233 15.8333 12.165C15.8333 14.0067 14.3417 15.4983 12.5 15.4983C10.6583 15.4983 9.16667 14.0067 9.16667 12.165C9.16667 10.3233 10.6583 8.83167 12.5 8.83167ZM7.92667 19.485C8.10833 19.2467 9.78167 17.165 12.5433 17.165C15.305 17.165 16.975 19.2483 17.1583 19.485C17.7183 20.215 17.58 21.2617 16.8483 21.8217C16.545 22.0533 16.1883 22.165 15.8367 22.165C15.335 22.165 14.84 21.94 14.5117 21.5117C14.5117 21.5117 13.6833 20.4983 12.5433 20.4983C11.4033 20.4983 10.5817 21.5017 10.5733 21.5117C10.0133 22.2433 8.97 22.3833 8.23667 21.8217C7.50667 21.2633 7.36833 20.2167 7.92667 19.485ZM25.8333 35.5H9.16667C8.245 35.5 7.5 34.7533 7.5 33.8333C7.5 32.9133 8.245 32.1667 9.16667 32.1667H25.8333C26.755 32.1667 27.5 32.9133 27.5 33.8333C27.5 34.7533 26.755 35.5 25.8333 35.5ZM25.8333 28.8333H9.16667C8.245 28.8333 7.5 28.0867 7.5 27.1667C7.5 26.2467 8.245 25.5 9.16667 25.5H25.8333C26.755 25.5 27.5 26.2467 27.5 27.1667C27.5 28.0867 26.755 28.8333 25.8333 28.8333ZM24.1667 12.1667C23.2467 12.1667 22.5 11.42 22.5 10.5V2.07C23.3783 2.57333 24.205 3.18 24.9417 3.915L30.7483 9.725C31.485 10.46 32.0917 11.2867 32.595 12.165L24.1667 12.1667Z" fill="#9CA3AF"/>
</svg>
