<svg width="12" height="12" viewBox="0 0 12 12" fill="none" xmlns="http://www.w3.org/2000/svg">
<path d="M2.62906 4.4381H0.78251C0.619264 4.4381 0.462705 4.4979 0.347273 4.60436C0.231841 4.71082 0.166992 4.8552 0.166992 5.00576V10.1147C0.166992 10.4158 0.29669 10.7046 0.527554 10.9175C0.758418 11.1304 1.07154 11.25 1.39803 11.25H2.01354C2.34004 11.25 2.65315 11.1304 2.88402 10.9175C3.11488 10.7046 3.24458 10.4158 3.24458 10.1147V5.00576C3.24458 4.8552 3.17973 4.71082 3.0643 4.60436C2.94887 4.4979 2.79231 4.4381 2.62906 4.4381Z" fill="#1E429F"/>
<path d="M10.6025 4.4381H8.16872L9.1277 1.88363C9.15916 1.64988 9.10098 1.41334 8.96325 1.21499C8.82551 1.01663 8.61688 0.86895 8.3735 0.797523C8.13013 0.726097 7.86732 0.735424 7.63062 0.823888C7.39391 0.912352 7.19821 1.07438 7.07741 1.28191C6.36598 2.40164 5.49046 3.42551 4.47562 4.32456V9.76614H4.54578C5.84391 10.0971 7.56244 10.6823 9.15355 10.6823C10.0153 10.6823 10.1335 10.3838 10.3107 9.93474L11.7596 5.96112C11.8272 5.78962 11.849 5.60563 11.8231 5.42472C11.7971 5.24382 11.7243 5.07135 11.6108 4.92191C11.4972 4.77247 11.3463 4.65048 11.1708 4.56626C10.9953 4.48204 10.8003 4.43807 10.6025 4.4381Z" fill="#1E429F"/>
</svg>
