<svg width="12" height="12" viewBox="0 0 12 12" fill="none" xmlns="http://www.w3.org/2000/svg">
<path d="M10.0683 8.00053C9.61901 8.00253 9.1847 8.1677 8.84123 8.4672C8.80537 8.42965 8.76574 8.39616 8.723 8.36732L4.01727 5.81901C3.96989 5.79829 3.92037 5.78328 3.86968 5.77426C3.87509 5.71672 3.88668 5.66158 3.88668 5.60325C3.88668 5.59606 3.88668 5.58967 3.88668 5.58327C3.93755 5.57778 3.98776 5.56707 4.03659 5.55131L8.60015 3.52561C8.64537 3.50025 8.68785 3.46998 8.72687 3.43531C9.04769 3.75547 9.46573 3.95101 9.91007 3.98876C10.3544 4.02652 10.7977 3.90416 11.1648 3.64245C11.5318 3.38073 11.8 2.99577 11.9239 2.55286C12.0478 2.10995 12.0197 1.63635 11.8445 1.2124C11.6692 0.788455 11.3575 0.440252 10.9623 0.226854C10.5671 0.0134563 10.1127 -0.0519982 9.67613 0.0415927C9.23957 0.135184 8.84776 0.382058 8.56714 0.740342C8.28653 1.09863 8.13439 1.54626 8.13653 2.00733C8.13615 2.01398 8.13615 2.02065 8.13653 2.02731C8.08563 2.03306 8.03542 2.04404 7.98662 2.06007L3.42306 4.08497C3.37795 4.11052 3.33549 4.14078 3.29634 4.17527C3.02931 3.90282 2.69151 3.71645 2.324 3.6388C1.95648 3.56115 1.57506 3.59556 1.2261 3.73785C0.877134 3.88015 0.575647 4.1242 0.358273 4.44035C0.1409 4.7565 0.0169992 5.13114 0.00162708 5.51873C-0.013745 5.90633 0.0800737 6.29021 0.271682 6.6237C0.463291 6.9572 0.74444 7.22596 1.08096 7.39733C1.41749 7.5687 1.7949 7.6353 2.16733 7.58904C2.53976 7.54277 2.89119 7.38563 3.17889 7.13671C3.21474 7.17427 3.25438 7.20775 3.29711 7.2366L8.00285 9.78491C8.0493 9.80966 8.09829 9.82896 8.14889 9.84245C8.14889 9.89519 8.13344 9.94633 8.13344 10.0023C8.13344 10.3974 8.24673 10.7836 8.45899 11.1121C8.67126 11.4407 8.97295 11.6967 9.32594 11.8479C9.67892 11.9991 10.0673 12.0387 10.442 11.9616C10.8168 11.8845 11.161 11.6943 11.4311 11.4149C11.7013 11.1355 11.8853 10.7795 11.9598 10.392C12.0343 10.0045 11.9961 9.6028 11.8499 9.23777C11.7037 8.87273 11.4561 8.56072 11.1384 8.34121C10.8207 8.12169 10.4472 8.00453 10.0652 8.00453L10.0683 8.00053Z" fill="#1F2A37"/>
</svg>
