<svg width="12" height="12" viewBox="0 0 12 12" fill="none" xmlns="http://www.w3.org/2000/svg">
<path d="M6.00033 0.166504C2.78383 0.166504 0.166992 2.78334 0.166992 5.99984C0.166992 9.21634 2.78383 11.8332 6.00033 11.8332C9.21683 11.8332 11.8337 9.21634 11.8337 5.99984C11.8337 2.78334 9.21683 0.166504 6.00033 0.166504ZM6.30599 3.73067C6.34041 3.62509 6.43141 3.54809 6.54108 3.53175L7.19558 3.43667L7.48841 2.84342C7.58641 2.64509 7.91366 2.64509 8.01108 2.84342L8.30391 3.43667L8.95841 3.53175C9.06808 3.5475 9.15966 3.62509 9.19349 3.73067C9.22733 3.83625 9.19933 3.95234 9.11941 4.02992L8.64574 4.49134L8.75774 5.14234C8.77641 5.252 8.73149 5.36284 8.64166 5.42759C8.59091 5.46434 8.53082 5.48359 8.47016 5.48359C8.42408 5.48359 8.37741 5.4725 8.33483 5.44975L7.75033 5.14234L7.16466 5.44975C7.06549 5.50225 6.94649 5.49292 6.85783 5.42759C6.76799 5.36284 6.72308 5.25142 6.74174 5.14234L6.85374 4.49134L6.38008 4.02992C6.30074 3.95234 6.27216 3.83625 6.30599 3.73067ZM2.80599 3.73067C2.84041 3.62567 2.93141 3.54809 3.04166 3.53234L3.69616 3.43667L3.98899 2.844C4.08699 2.64567 4.41424 2.64567 4.51166 2.844L4.80449 3.43667L5.45899 3.53175C5.56866 3.5475 5.66024 3.62509 5.69408 3.73067C5.72791 3.83625 5.69991 3.95234 5.61999 4.02992L5.14633 4.49134L5.25833 5.14234C5.27699 5.252 5.23208 5.36284 5.14224 5.42759C5.09149 5.46434 5.03141 5.48359 4.97074 5.48359C4.92466 5.48359 4.87799 5.4725 4.83541 5.44975L4.25033 5.14234L3.66466 5.44975C3.56549 5.50225 3.44649 5.49292 3.35783 5.42759C3.26799 5.36284 3.22308 5.25142 3.24174 5.14234L3.35374 4.49134L2.88008 4.02992C2.80074 3.95234 2.77216 3.83625 2.80599 3.73067ZM6.00033 9.49984C4.22291 9.49984 2.79199 7.90442 2.79199 6.58317H3.37533C3.48733 6.69517 4.47549 6.92325 6.00033 6.92325C7.52516 6.92325 8.51333 6.69517 8.63933 6.53067L9.20866 6.58317C9.20866 7.90442 7.77774 9.49984 6.00033 9.49984Z" fill="#03543F"/>
</svg>
