<svg width="18" height="18" viewBox="0 0 18 18" fill="none" xmlns="http://www.w3.org/2000/svg">
<path d="M7.58396 2.26717L6.14996 6.42292C6.11215 6.53636 6.04777 6.63911 5.96219 6.7226C5.8766 6.8061 5.77229 6.86793 5.65796 6.90292L1.51721 8.16592L5.67296 9.60367C5.78477 9.64093 5.88622 9.70401 5.96909 9.78779C6.05197 9.87158 6.11393 9.97372 6.14996 10.0859L7.47746 14.2334L8.84996 10.0859C8.88637 9.97204 8.94947 9.86852 9.03401 9.78398C9.11855 9.69944 9.22208 9.63633 9.33596 9.59992L13.4835 8.27317C13.4888 8.2717 13.4938 8.26943 13.4985 8.26642L9.33596 6.89992C9.22044 6.86298 9.11561 6.79858 9.03044 6.71224C8.94527 6.6259 8.88231 6.52019 8.84696 6.40417L7.58396 2.26717Z" fill="#3E3E3E"/>
<path fill-rule="evenodd" clip-rule="evenodd" d="M14.2044 17.8713C14.3286 17.9552 14.4751 18 14.625 17.9999C14.7752 17.9998 14.922 17.9545 15.0462 17.87C15.1704 17.7855 15.2664 17.6656 15.3217 17.5259L15.9525 15.9509L17.5275 15.3202C17.6649 15.2627 17.7822 15.1659 17.8647 15.0419C17.9472 14.918 17.9913 14.7724 17.9913 14.6234C17.9913 14.4745 17.9472 14.3289 17.8647 14.2049C17.7822 14.081 17.6649 13.9841 17.5275 13.9267L15.9525 13.2959L15.3217 11.7209C15.264 11.5838 15.1671 11.4668 15.0431 11.3845C14.9192 11.3022 14.7737 11.2583 14.625 11.2583C14.4762 11.2583 14.3307 11.3022 14.2068 11.3845C14.0829 11.4668 13.9859 11.5838 13.9282 11.7209L13.3005 13.2899L11.7345 13.8832C11.5962 13.9381 11.4772 14.0327 11.3924 14.155C11.3077 14.2774 11.261 14.422 11.2582 14.5708C11.2554 14.7196 11.2966 14.8659 11.3767 14.9914C11.4567 15.1168 11.5721 15.2158 11.7082 15.2759L13.2952 15.9442L13.9282 17.5289C13.984 17.6681 14.0802 17.7873 14.2044 17.8713ZM14.9136 5.09118C15.0454 5.19405 15.2078 5.24992 15.375 5.24992C15.5422 5.24992 15.7046 5.19405 15.8364 5.09118C15.9682 4.98832 16.0618 4.84436 16.1025 4.68217L16.368 3.61867L17.4315 3.35242C17.5936 3.31178 17.7376 3.21811 17.8404 3.08631C17.9433 2.9545 17.9991 2.79211 17.9991 2.62492C17.9991 2.45774 17.9433 2.29534 17.8404 2.16354C17.7376 2.03173 17.5936 1.93807 17.4315 1.89742L16.368 1.63117L16.1025 0.567671C16.0618 0.405501 15.9682 0.26156 15.8363 0.158711C15.7045 0.0558609 15.5421 0 15.375 0C15.2078 0 15.0454 0.0558609 14.9136 0.158711C14.7818 0.26156 14.6881 0.405501 14.6475 0.567671L14.3805 1.62217L13.3305 1.86592C13.1675 1.90364 13.0218 1.99474 12.9166 2.12475C12.8114 2.25477 12.7526 2.41623 12.7497 2.58347C12.7467 2.75071 12.7998 2.91413 12.9004 3.04775C13.001 3.18137 13.1434 3.27752 13.305 3.32092L14.3797 3.60967L14.6475 4.68217C14.6881 4.84436 14.7817 4.98832 14.9136 5.09118Z" fill="#3E3E3E"/>
<path fill-rule="evenodd" clip-rule="evenodd" d="M7.49996 15.7499C7.17594 15.7538 6.85937 15.6527 6.59763 15.4616C6.33589 15.2706 6.14304 15 6.04796 14.6902L4.83746 10.9049L1.04021 9.63442C0.733733 9.53198 0.467749 9.33478 0.280676 9.07129C0.0936036 8.8078 -0.00487431 8.49167 -0.000533828 8.16856C0.00380665 7.84544 0.110741 7.53207 0.304824 7.2737C0.498907 7.01533 0.770092 6.82534 1.07921 6.73117L4.84646 5.58067L6.11546 1.79017C6.20981 1.47883 6.40498 1.20767 6.67027 1.01936C6.93556 0.831055 7.25592 0.736272 7.58096 0.749921C7.90504 0.75036 8.22025 0.855743 8.47943 1.0503C8.73861 1.24485 8.92781 1.51811 9.01871 1.82917L10.1677 5.59042L13.9402 6.79792C14.2445 6.89998 14.509 7.09506 14.6964 7.3556C14.8839 7.61614 14.9847 7.92898 14.9847 8.24992C14.9847 8.57087 14.8839 8.88371 14.6964 9.14425C14.509 9.40479 14.2445 9.59986 13.9402 9.70192L10.161 10.9109L8.95196 14.6902C8.85688 15 8.66403 15.2706 8.40229 15.4616C8.14055 15.6527 7.82398 15.7538 7.49996 15.7499ZM6.14996 6.42292L7.58396 2.26717L8.84696 6.40417C8.88231 6.52019 8.94527 6.6259 9.03044 6.71224C9.11561 6.79858 9.22044 6.86298 9.33596 6.89992L13.4985 8.26642C13.4938 8.26943 13.4888 8.2717 13.4835 8.27317L9.33596 9.59992C9.22208 9.63633 9.11855 9.69944 9.03401 9.78398C8.94947 9.86852 8.88637 9.97204 8.84996 10.0859L7.47746 14.2334L6.14996 10.0859C6.11393 9.97372 6.05197 9.87158 5.96909 9.78779C5.88622 9.70401 5.78477 9.64093 5.67296 9.60367L1.51721 8.16592L5.65796 6.90292C5.77229 6.86793 5.8766 6.8061 5.96219 6.7226C6.04777 6.63911 6.11215 6.53636 6.14996 6.42292Z" fill="#3E3E3E"/>
</svg>
