<svg width="18" height="18" viewBox="0 0 18 18" fill="none" xmlns="http://www.w3.org/2000/svg">
<path d="M15.0375 11.2882C15.0832 10.9649 15.0727 10.6432 15.0007 10.3259C14.9527 10.1129 15.0547 9.88269 15.2557 9.75294C15.6292 9.51219 15.9322 9.18444 16.1572 8.77944C16.371 8.39319 16.4827 7.94994 16.4805 7.50444C16.4827 7.05144 16.371 6.60819 16.1572 6.22194C15.933 5.81694 15.6292 5.48919 15.2557 5.24844C15.0547 5.11869 14.952 4.88919 15.0007 4.67469C15.1012 4.22994 15.0862 3.77544 14.9565 3.32169C14.709 2.46069 14.0212 1.77294 13.1595 1.52469C12.705 1.39569 12.2505 1.38144 11.8073 1.48119C11.592 1.52544 11.364 1.42644 11.2343 1.22544C10.9935 0.851941 10.6665 0.548941 10.2615 0.323941C9.4785 -0.109559 8.50425 -0.110309 7.7205 0.323941C7.317 0.548191 6.99 0.851191 6.74925 1.22469C6.6195 1.42569 6.39225 1.52844 6.1755 1.47969C5.733 1.38069 5.27775 1.39494 4.8225 1.52469C3.9615 1.77144 3.273 2.45994 3.027 3.32019C2.8965 3.77469 2.8815 4.23069 2.982 4.67469C3.03 4.88769 2.928 5.11794 2.727 5.24769C2.35275 5.48919 2.04975 5.81619 1.82475 6.22119C1.611 6.60744 1.49925 7.05069 1.5015 7.49619C1.49925 7.94919 1.611 8.39244 1.8255 8.77944C2.04975 9.18369 2.3535 9.51069 2.727 9.75144C2.928 9.88194 3.03075 10.1114 2.982 10.3252C2.9085 10.6469 2.89875 10.9747 2.94675 11.3032L0 14.2499H3.75V17.9999L7.3455 14.4044C7.4655 14.4997 7.5825 14.5987 7.72125 14.6759C8.11275 14.8927 8.55225 15.0014 8.991 15.0014C9.42975 15.0014 9.87 14.8927 10.2622 14.6752C10.4047 14.5964 10.5247 14.4959 10.647 14.3977L14.25 18.0007V14.2507H18L15.0375 11.2882ZM9.498 9.31044C9.2145 9.59394 8.838 9.74994 8.4375 9.74994C8.037 9.74994 7.6605 9.59394 7.377 9.31044L5.5095 7.44294L6.57 6.38244L8.4375 8.24994L11.5365 5.15094L12.597 6.21144L9.498 9.31044Z" fill="#3E3E3E"/>
</svg>
