<svg width="18" height="18" viewBox="0 0 18 18" fill="none" xmlns="http://www.w3.org/2000/svg">
<path d="M11.2778 17.9985C10.503 17.9985 9.7275 17.7038 9.13725 17.1135C8.565 16.542 8.25 15.7815 8.25 14.9722C8.25 14.163 8.565 13.4032 9.13725 12.831L12.297 9.672C12.5903 9.37875 13.0642 9.37875 13.3575 9.672C13.6507 9.96525 13.6507 10.4392 13.3575 10.7325L10.1978 13.8915C9.909 14.1802 9.75 14.5642 9.75 14.9722C9.75 15.3802 9.909 15.7642 10.1978 16.053C10.7948 16.6485 11.7638 16.6477 12.3593 16.053L16.3868 12.0255C16.5382 11.874 16.5382 11.6265 16.3868 11.475C16.2405 11.3288 15.984 11.328 15.8363 11.475L12.531 14.7803C12.2378 15.0735 11.7638 15.0735 11.4705 14.7803C11.1772 14.487 11.1772 14.013 11.4705 13.7197L14.7758 10.4145C15.489 9.702 16.7325 9.7005 17.4473 10.4145C18.183 11.151 18.183 12.3503 17.4473 13.086L13.4198 17.1135C12.8295 17.7038 12.054 17.9985 11.2785 17.9985H11.2778ZM7.245 9.303C6.8625 9.102 6.52125 8.82525 6.216 8.52L0.222 2.52525C0.08775 2.91075 0 3.31875 0 3.75V10.5C0 12.5708 1.67925 14.25 3.75 14.25H6.81225C6.9615 13.3155 7.39425 12.4522 8.07675 11.7697L10.356 9.4905C9.4125 9.8565 8.328 9.87 7.24575 9.303H7.245ZM17.778 2.52525C17.9123 2.91075 18 3.31875 18 3.75V8.9475C17.007 8.28975 15.7147 8.2035 14.6467 8.7015L14.5597 8.784C14.5125 8.72625 14.4705 8.664 14.4172 8.61075C13.836 8.0295 13.0163 7.842 12.273 8.03025L17.778 2.52525ZM16.9837 1.1985L10.5907 7.5915C10.1655 8.016 9.58275 8.22825 8.99925 8.229C8.4165 8.229 7.833 8.01675 7.40775 7.5915L1.01625 1.19775C1.701 0.465 2.66775 0 3.75 0H14.25C15.3322 0 16.2998 0.465 16.9837 1.19775V1.1985Z" fill="#3E3E3E"/>
</svg>
