<svg width="18" height="17" viewBox="0 0 18 17" fill="none" xmlns="http://www.w3.org/2000/svg">
<path d="M3.93821 5.54428C3.62784 5.54515 3.32039 5.48526 3.03364 5.36809C2.7469 5.25091 2.48655 5.07879 2.26768 4.86167L1.23837 3.95928C1.03788 3.78266 0.916713 3.53468 0.901523 3.26991C0.894002 3.13881 0.912726 3.00753 0.956626 2.88357C1.00053 2.7596 1.06874 2.64539 1.15738 2.54744C1.24601 2.44949 1.35334 2.36972 1.47322 2.31269C1.5931 2.25567 1.72319 2.2225 1.85606 2.21507C2.12441 2.20009 2.3878 2.29089 2.58829 2.46752L3.65742 3.4092C3.69224 3.44979 3.73511 3.4829 3.78341 3.5065C3.8317 3.5301 3.88439 3.54367 3.93821 3.54639C4.02754 3.54637 4.11322 3.5114 4.17647 3.44915L6.61509 1.15823C6.8109 0.983412 7.06818 0.890994 7.33206 0.900686C7.59595 0.910379 7.84555 1.02141 8.02764 1.21011C8.20973 1.39881 8.30989 1.65024 8.30677 1.91077C8.30364 2.1713 8.19747 2.42032 8.01091 2.60471L5.59051 4.87832C5.37304 5.09111 5.11515 5.25947 4.83161 5.37375C4.54808 5.48803 4.24448 5.54598 3.93821 5.54428ZM17.0999 3.2134C17.0999 2.94846 16.9932 2.69438 16.8034 2.50704C16.6135 2.3197 16.356 2.21445 16.0875 2.21445H10.6878C10.4193 2.21445 10.1618 2.3197 9.97189 2.50704C9.78202 2.69438 9.67536 2.94846 9.67536 3.2134C9.67536 3.47834 9.78202 3.73243 9.97189 3.91977C10.1618 4.10711 10.4193 4.21235 10.6878 4.21235H16.0875C16.356 4.21235 16.6135 4.10711 16.8034 3.91977C16.9932 3.73243 17.0999 3.47834 17.0999 3.2134ZM5.59051 10.206L8.01091 7.93244C8.19747 7.74805 8.30364 7.49903 8.30677 7.2385C8.30989 6.97797 8.20973 6.72654 8.02764 6.53784C7.84555 6.34914 7.59595 6.23811 7.33206 6.22842C7.06818 6.21872 6.8109 6.31114 6.61509 6.48596L4.17647 8.77688C4.11318 8.83931 4.02736 8.87438 3.93787 8.87438C3.84838 8.87438 3.76256 8.83931 3.69927 8.77688L2.62946 7.72066C2.43953 7.53326 2.18193 7.42798 1.91333 7.42798C1.64473 7.42798 1.38713 7.53326 1.1972 7.72066C1.00727 7.90806 0.900569 8.16223 0.900569 8.42725C0.900569 8.69227 1.00727 8.94644 1.1972 9.13384L2.26768 10.1894C2.70773 10.6233 3.3035 10.8685 3.92563 10.8716C4.54776 10.8747 5.14602 10.6355 5.59051 10.206ZM17.0999 8.54113C17.0999 8.27619 16.9932 8.02211 16.8034 7.83477C16.6135 7.64743 16.356 7.54218 16.0875 7.54218H10.6878C10.4193 7.54218 10.1618 7.64743 9.97189 7.83477C9.78202 8.02211 9.67536 8.27619 9.67536 8.54113C9.67536 8.80607 9.78202 9.06016 9.97189 9.2475C10.1618 9.43483 10.4193 9.54008 10.6878 9.54008H16.0875C16.356 9.54008 16.6135 9.43483 16.8034 9.2475C16.9932 9.06016 17.0999 8.80607 17.0999 8.54113ZM5.59051 15.5338L8.01091 13.2602C8.19747 13.0758 8.30364 12.8268 8.30677 12.5662C8.30989 12.3057 8.20973 12.0543 8.02764 11.8656C7.84555 11.6769 7.59595 11.5658 7.33206 11.5561C7.06818 11.5465 6.8109 11.6389 6.61509 11.8137L4.17647 14.1046C4.11322 14.1669 4.02754 14.2018 3.93821 14.2018C3.88439 14.1991 3.8317 14.1856 3.78341 14.162C3.73511 14.1384 3.69224 14.1052 3.65742 14.0647L2.58829 13.123C2.3878 12.9464 2.12441 12.8555 1.85606 12.8705C1.58771 12.8855 1.33639 13.0051 1.15738 13.2029C0.978367 13.4007 0.886334 13.6606 0.901523 13.9254C0.916713 14.1901 1.03788 14.4381 1.23837 14.6147L2.26633 15.5171C2.70644 15.9515 3.30249 16.1968 3.92495 16.2C4.54741 16.2031 5.14596 15.9637 5.59051 15.5338ZM17.0999 13.8689C17.0999 13.6039 16.9932 13.3498 16.8034 13.1625C16.6135 12.9752 16.356 12.8699 16.0875 12.8699H10.6878C10.4193 12.8699 10.1618 12.9752 9.97189 13.1625C9.78202 13.3498 9.67536 13.6039 9.67536 13.8689C9.67536 14.1338 9.78202 14.3879 9.97189 14.5752C10.1618 14.7626 10.4193 14.8678 10.6878 14.8678H16.0875C16.356 14.8678 16.6135 14.7626 16.8034 14.5752C16.9932 14.3879 17.0999 14.1338 17.0999 13.8689Z" fill="#B8F278"/>
</svg>
