<svg width="18" height="18" viewBox="0 0 18 18" fill="none" xmlns="http://www.w3.org/2000/svg">
<g clip-path="url(#clip0_237_3970)">
<path d="M13.725 3.5999H12.9825C12.8259 2.83811 12.4114 2.15361 11.8089 1.66179C11.2064 1.16996 10.4528 0.900884 9.67502 0.899902L8.32502 0.899902C7.54729 0.900884 6.79366 1.16996 6.19118 1.66179C5.5887 2.15361 5.17419 2.83811 5.01752 3.5999H4.27502C3.38025 3.60097 2.52243 3.9569 1.88972 4.5896C1.25702 5.2223 0.901096 6.08013 0.900024 6.9749L0.900024 8.9999H17.1V6.9749C17.099 6.08013 16.743 5.2223 16.1103 4.5896C15.4776 3.9569 14.6198 3.60097 13.725 3.5999ZM6.42422 3.5999C6.56333 3.20644 6.82061 2.86556 7.16085 2.62391C7.5011 2.38226 7.9077 2.25163 8.32502 2.2499H9.67502C10.0924 2.25163 10.499 2.38226 10.8392 2.62391C11.1794 2.86556 11.4367 3.20644 11.5758 3.5999H6.42422Z" fill="#3E3E3E"/>
<path d="M9.67502 10.6199C9.67502 10.8109 9.60391 10.994 9.47732 11.129C9.35073 11.264 9.17905 11.3399 9.00002 11.3399C8.821 11.3399 8.64931 11.264 8.52273 11.129C8.39614 10.994 8.32502 10.8109 8.32502 10.6199V9.8999H0.900024V13.4999C0.901096 14.4543 1.25702 15.3693 1.88972 16.0442C2.52243 16.7191 3.38025 17.0988 4.27502 17.0999H13.725C14.6198 17.0988 15.4776 16.7191 16.1103 16.0442C16.743 15.3693 17.099 14.4543 17.1 13.4999V9.8999H9.67502V10.6199Z" fill="#3E3E3E"/>
</g>
<defs>
<clipPath id="clip0_237_3970">
<rect width="18" height="18" fill="white"/>
</clipPath>
</defs>
</svg>
