<svg width="16" height="12" viewBox="0 0 16 12" fill="none" xmlns="http://www.w3.org/2000/svg">
<path d="M8 6.6398L14.9562 1.0804C14.6891 0.86859 14.3505 0.751582 14 0.75H2C1.64951 0.751582 1.31086 0.86859 1.04375 1.0804L8 6.6398Z" fill="#99A3F6"/>
<path d="M8.9375 7.7339C8.66454 7.92877 8.3309 8.03519 7.98725 8.037C7.667 8.03761 7.35526 7.94079 7.09925 7.7612L0.5 2.4888V9.85C0.5 10.2213 0.658035 10.5774 0.93934 10.8399C1.22064 11.1025 1.60218 11.25 2 11.25H14C14.3978 11.25 14.7794 11.1025 15.0607 10.8399C15.342 10.5774 15.5 10.2213 15.5 9.85V2.4888L8.9375 7.7339Z" fill="#99A3F6"/>
</svg>
