<svg width="18" height="18" viewBox="0 0 18 18"  xmlns="http://www.w3.org/2000/svg">
<path d="M6.75 9C4.26825 9 2.25 6.98175 2.25 4.5C2.25 2.01825 4.26825 0 6.75 0C9.23175 0 11.25 2.01825 11.25 4.5C11.25 6.98175 9.23175 9 6.75 9ZM9.9525 14.61C9.34275 15.2197 9 16.0462 9 16.9088V18H10.0912C10.9537 18 11.7803 17.6572 12.39 17.0475L17.4953 11.9423C18.168 11.2695 18.168 10.1775 17.4953 9.50475C16.8225 8.832 15.7305 8.832 15.0577 9.50475L9.9525 14.61ZM7.5 16.9088C7.5 15.6398 7.99425 14.4465 8.89125 13.5495L10.6733 11.7675C9.56625 10.9725 8.214 10.4992 6.75 10.4992C3.0285 10.5 0 13.5285 0 17.25C0 17.664 0.336 18 0.75 18H7.5V16.9088Z"/>
</svg>


