<svg width="16" height="18" viewBox="0 0 16 18" fill="none" xmlns="http://www.w3.org/2000/svg">
<path d="M13.2798 4.19976L14.8431 3.41835C15.0643 3.3078 15.0643 2.9922 14.8431 2.88165L13.2798 2.10024L12.4984 0.536876C12.3878 0.315713 12.0722 0.315713 11.9617 0.536877L11.1803 2.10024L9.61689 2.88165C9.39573 2.9922 9.39573 3.3078 9.61689 3.41835L11.1803 4.19976L11.9617 5.76312C12.0722 5.98429 12.3878 5.98429 12.4984 5.76312L13.2798 4.19976Z" fill="#3E3E3E"/>
<path fill-rule="evenodd" clip-rule="evenodd" d="M15.497 5.27726C14.7833 6.43119 13.5064 7.2 12.05 7.2C9.81323 7.2 7.99999 5.38675 7.99999 3.15C7.99999 1.87773 8.58664 0.74248 9.50419 0H7.99999V0.00339205C7.82726 0.00131681 7.68124 0 7.63631 0H4.25006C2.18231 0 0.500061 1.68225 0.500061 3.75V14.25C0.500061 16.3177 2.18231 18 4.25006 18H11.7501C13.8178 18 15.5001 16.3177 15.5001 14.25V7.11375C15.5001 7.07116 15.4989 7.02876 15.497 6.98647V5.27726ZM5.75006 3.74925C6.57881 3.74925 7.25006 4.4205 7.25006 5.24925C7.25006 6.078 6.57881 6.74925 5.75006 6.74925C4.92131 6.74925 4.25006 6.078 4.25006 5.24925C4.25006 4.4205 4.92131 3.74925 5.75006 3.74925ZM3.69206 8.54325C3.77381 8.436 4.52681 7.49925 5.76956 7.49925C7.01231 7.49925 7.76381 8.43675 7.84631 8.54325C8.09831 8.87175 8.03606 9.34275 7.70681 9.59475C7.57031 9.699 7.40981 9.74925 7.25156 9.74925C7.02581 9.74925 6.80306 9.648 6.65531 9.45525C6.65531 9.45525 6.28256 8.99925 5.76956 8.99925C5.26028 8.99925 4.89204 9.4444 4.88306 9.45525C4.63106 9.7845 4.16156 9.8475 3.83156 9.59475C3.50306 9.3435 3.44081 8.8725 3.69206 8.54325ZM11.7501 15.75H4.25006C3.83531 15.75 3.50006 15.414 3.50006 15C3.50006 14.586 3.83531 14.25 4.25006 14.25H11.7501C12.1648 14.25 12.5001 14.586 12.5001 15C12.5001 15.414 12.1648 15.75 11.7501 15.75ZM11.7501 12.75H4.25006C3.83531 12.75 3.50006 12.414 3.50006 12C3.50006 11.586 3.83531 11.25 4.25006 11.25H11.7501C12.1648 11.25 12.5001 11.586 12.5001 12C12.5001 12.414 12.1648 12.75 11.7501 12.75Z" fill="#3E3E3E"/>
</svg>
