<svg width="14" height="16" viewBox="0 0 14 16" fill="none" xmlns="http://www.w3.org/2000/svg">
<path d="M1.75907 15.0559C2.0718 15.1972 2.41755 15.2356 2.75122 15.166C3.08488 15.0965 3.39098 14.9223 3.62956 14.6661L7.00001 11.1229L10.3705 14.6661C10.5276 14.8346 10.7148 14.9685 10.9213 15.0601C11.1277 15.1516 11.3493 15.199 11.5732 15.1994C11.8033 15.1987 12.031 15.1499 12.2432 15.0559C12.5585 14.9211 12.828 14.6888 13.0165 14.3896C13.205 14.0903 13.3038 13.738 13.2999 13.3785V3.82658C13.299 3.02413 12.997 2.25481 12.4602 1.68739C11.9233 1.11997 11.1955 0.800766 10.4363 0.799805L3.5637 0.799805C2.80451 0.800766 2.07667 1.11997 1.53984 1.68739C1.00301 2.25481 0.701021 3.02413 0.700112 3.82658V13.3785C0.696416 13.7383 0.795513 14.0908 0.984445 14.3901C1.17338 14.6894 1.44335 14.9214 1.75907 15.0559Z" fill="#3E3E3E"/>
</svg>
