<svg width="8" height="12" viewBox="0 0 8 12" fill="none" xmlns="http://www.w3.org/2000/svg">
<path fill-rule="evenodd" clip-rule="evenodd" d="M7.24841 0.351344C7.47338 0.576377 7.59976 0.881547 7.59976 1.19974C7.59976 1.51794 7.47338 1.82311 7.24841 2.04814L3.29681 5.99974L7.24841 9.95134C7.467 10.1777 7.58795 10.4808 7.58522 10.7954C7.58249 11.1101 7.45628 11.411 7.23379 11.6335C7.0113 11.856 6.71033 11.9822 6.39569 11.985C6.08106 11.9877 5.77794 11.8667 5.55161 11.6481L0.751612 6.84814C0.526647 6.62311 0.400269 6.31794 0.400269 5.99974C0.400269 5.68155 0.526647 5.37638 0.751612 5.15134L5.55161 0.351344C5.77665 0.126379 6.08182 0 6.40001 0C6.71821 0 7.02338 0.126379 7.24841 0.351344Z" fill="#1F2A37"/>
</svg>
