<svg width="8" height="13" viewBox="0 0 8 13" fill="none" xmlns="http://www.w3.org/2000/svg">
<path d="M1.78919 12.3337C1.56991 12.3336 1.35557 12.2652 1.17326 12.1372C0.990946 12.0092 0.848854 11.8272 0.764945 11.6143C0.681036 11.4014 0.659078 11.1672 0.701845 10.9412C0.744611 10.7152 0.850184 10.5076 1.00522 10.3446L4.65676 6.50748L1.00522 2.67037C0.899306 2.56288 0.814829 2.4343 0.756713 2.29214C0.698598 2.14997 0.668008 1.99707 0.666729 1.84235C0.665449 1.68763 0.693507 1.5342 0.749262 1.39099C0.805018 1.24779 0.887355 1.11769 0.991471 1.00828C1.09559 0.898874 1.21939 0.812352 1.35567 0.753763C1.49195 0.695174 1.63797 0.665692 1.7852 0.667036C1.93244 0.668381 2.07795 0.700525 2.21323 0.761594C2.34852 0.822663 2.47088 0.911433 2.57317 1.02272L7.00869 5.68366C7.21657 5.90218 7.33335 6.19851 7.33335 6.50748C7.33335 6.81646 7.21657 7.11279 7.00869 7.33131L2.57317 11.9922C2.36526 12.2108 2.08326 12.3336 1.78919 12.3337Z" fill="#9CA3AF"/>
</svg>
