<svg width="14" height="10" viewBox="0 0 14 10" fill="none" xmlns="http://www.w3.org/2000/svg">
<path d="M11.0833 0H2.91667C2.1434 0.000952715 1.40208 0.317329 0.855295 0.879732C0.308514 1.44213 0.00092625 2.20464 0 3H14C13.9991 2.20464 13.6915 1.44213 13.1447 0.879732C12.5979 0.317329 11.8566 0.000952715 11.0833 0Z" fill="#7683F0"/>
<path d="M0 7.27273C0.00092625 7.99578 0.308514 8.68897 0.855295 9.20024C1.40208 9.71152 2.1434 9.99913 2.91667 10H11.0833C11.8566 9.99913 12.5979 9.71152 13.1447 9.20024C13.6915 8.68897 13.9991 7.99578 14 7.27273V4H0V7.27273ZM4.08333 7C4.08333 7.16182 4.03202 7.32001 3.93587 7.45456C3.83972 7.58911 3.70307 7.69397 3.54318 7.7559C3.3833 7.81783 3.20736 7.83403 3.03763 7.80246C2.8679 7.77089 2.71199 7.69297 2.58961 7.57854C2.46724 7.46412 2.38391 7.31833 2.35015 7.15962C2.31638 7.00091 2.33371 6.8364 2.39994 6.6869C2.46617 6.53739 2.57832 6.40961 2.72221 6.31971C2.8661 6.2298 3.03527 6.18182 3.20833 6.18182C3.4404 6.18182 3.66296 6.26802 3.82705 6.42146C3.99115 6.5749 4.08333 6.783 4.08333 7Z" fill="#7683F0"/>
</svg>
