<svg width="12" height="12" viewBox="0 0 12 12" fill="none" xmlns="http://www.w3.org/2000/svg">
<path d="M6.80004 0.400391C6.58787 0.400391 6.38438 0.484676 6.23436 0.634705C6.08433 0.784734 6.00004 0.988217 6.00004 1.20039C6.00004 1.41256 6.08433 1.61605 6.23436 1.76608C6.38438 1.9161 6.58787 2.00039 6.80004 2.00039H8.86884L3.83444 7.03479C3.75803 7.10859 3.69709 7.19686 3.65516 7.29447C3.61323 7.39207 3.59116 7.49705 3.59024 7.60327C3.58932 7.70949 3.60956 7.81484 3.64978 7.91315C3.69001 8.01147 3.74941 8.10079 3.82452 8.17591C3.89964 8.25102 3.98896 8.31042 4.08728 8.35065C4.18559 8.39087 4.29094 8.41111 4.39716 8.41019C4.50339 8.40927 4.60836 8.3872 4.70596 8.34527C4.80357 8.30334 4.89184 8.2424 4.96564 8.16599L10 3.13159V5.20039C10 5.41256 10.0843 5.61605 10.2344 5.76608C10.3844 5.9161 10.5879 6.00039 10.8 6.00039C11.0122 6.00039 11.2157 5.9161 11.3657 5.76608C11.5158 5.61605 11.6 5.41256 11.6 5.20039V1.20039C11.6 0.988217 11.5158 0.784734 11.3657 0.634705C11.2157 0.484676 11.0122 0.400391 10.8 0.400391H6.80004Z" fill="#5D5BE0"/>
<path d="M2.00002 2C1.57568 2 1.16871 2.16857 0.868654 2.46863C0.568595 2.76869 0.400024 3.17565 0.400024 3.6V10C0.400024 10.4243 0.568595 10.8313 0.868654 11.1314C1.16871 11.4314 1.57568 11.6 2.00002 11.6H8.40002C8.82437 11.6 9.23134 11.4314 9.53139 11.1314C9.83145 10.8313 10 10.4243 10 10V7.6C10 7.38783 9.91574 7.18434 9.76571 7.03431C9.61568 6.88429 9.4122 6.8 9.20002 6.8C8.98785 6.8 8.78437 6.88429 8.63434 7.03431C8.48431 7.18434 8.40002 7.38783 8.40002 7.6V10H2.00002V3.6H4.40002C4.6122 3.6 4.81568 3.51571 4.96571 3.36569C5.11574 3.21566 5.20002 3.01217 5.20002 2.8C5.20002 2.58783 5.11574 2.38434 4.96571 2.23431C4.81568 2.08429 4.6122 2 4.40002 2H2.00002Z" fill="#5D5BE0"/>
</svg>
