<svg width="14" height="14" viewBox="0 0 14 14" fill="none" xmlns="http://www.w3.org/2000/svg">
<path d="M5.25 0H2.91667C2.14312 0 1.40125 0.307291 0.854272 0.854272C0.307291 1.40125 0 2.14312 0 2.91667L0 11.0833C0 11.4664 0.0754418 11.8456 0.222018 12.1995C0.368594 12.5534 0.583434 12.8749 0.854272 13.1457C1.40125 13.6927 2.14312 14 2.91667 14H8.16667V2.91667C8.16667 2.53364 8.09122 2.15437 7.94465 1.80051C7.79807 1.44664 7.58323 1.12511 7.31239 0.854272C7.04156 0.583434 6.72003 0.368594 6.36616 0.222018C6.01229 0.0754418 5.63302 0 5.25 0ZM2.91667 11.0833H2.33333C2.17862 11.0833 2.03025 11.0219 1.92085 10.9125C1.81146 10.8031 1.75 10.6547 1.75 10.5C1.75 10.3453 1.81146 10.1969 1.92085 10.0875C2.03025 9.97812 2.17862 9.91667 2.33333 9.91667H2.91667C3.07138 9.91667 3.21975 9.97812 3.32915 10.0875C3.43854 10.1969 3.5 10.3453 3.5 10.5C3.5 10.6547 3.43854 10.8031 3.32915 10.9125C3.21975 11.0219 3.07138 11.0833 2.91667 11.0833ZM2.91667 8.75H2.33333C2.17862 8.75 2.03025 8.68854 1.92085 8.57915C1.81146 8.46975 1.75 8.32138 1.75 8.16667C1.75 8.01196 1.81146 7.86358 1.92085 7.75419C2.03025 7.64479 2.17862 7.58333 2.33333 7.58333H2.91667C3.07138 7.58333 3.21975 7.64479 3.32915 7.75419C3.43854 7.86358 3.5 8.01196 3.5 8.16667C3.5 8.32138 3.43854 8.46975 3.32915 8.57915C3.21975 8.68854 3.07138 8.75 2.91667 8.75ZM2.91667 6.41667H2.33333C2.17862 6.41667 2.03025 6.35521 1.92085 6.24581C1.81146 6.13642 1.75 5.98804 1.75 5.83333C1.75 5.67862 1.81146 5.53025 1.92085 5.42085C2.03025 5.31146 2.17862 5.25 2.33333 5.25H2.91667C3.07138 5.25 3.21975 5.31146 3.32915 5.42085C3.43854 5.53025 3.5 5.67862 3.5 5.83333C3.5 5.98804 3.43854 6.13642 3.32915 6.24581C3.21975 6.35521 3.07138 6.41667 2.91667 6.41667ZM2.91667 4.08333H2.33333C2.17862 4.08333 2.03025 4.02187 1.92085 3.91248C1.81146 3.80308 1.75 3.65471 1.75 3.5C1.75 3.34529 1.81146 3.19692 1.92085 3.08752C2.03025 2.97812 2.17862 2.91667 2.33333 2.91667H2.91667C3.07138 2.91667 3.21975 2.97812 3.32915 3.08752C3.43854 3.19692 3.5 3.34529 3.5 3.5C3.5 3.65471 3.43854 3.80308 3.32915 3.91248C3.21975 4.02187 3.07138 4.08333 2.91667 4.08333ZM5.83333 11.0833H5.25C5.09529 11.0833 4.94692 11.0219 4.83752 10.9125C4.72812 10.8031 4.66667 10.6547 4.66667 10.5C4.66667 10.3453 4.72812 10.1969 4.83752 10.0875C4.94692 9.97812 5.09529 9.91667 5.25 9.91667H5.83333C5.98804 9.91667 6.13642 9.97812 6.24581 10.0875C6.35521 10.1969 6.41667 10.3453 6.41667 10.5C6.41667 10.6547 6.35521 10.8031 6.24581 10.9125C6.13642 11.0219 5.98804 11.0833 5.83333 11.0833ZM5.83333 8.75H5.25C5.09529 8.75 4.94692 8.68854 4.83752 8.57915C4.72812 8.46975 4.66667 8.32138 4.66667 8.16667C4.66667 8.01196 4.72812 7.86358 4.83752 7.75419C4.94692 7.64479 5.09529 7.58333 5.25 7.58333H5.83333C5.98804 7.58333 6.13642 7.64479 6.24581 7.75419C6.35521 7.86358 6.41667 8.01196 6.41667 8.16667C6.41667 8.32138 6.35521 8.46975 6.24581 8.57915C6.13642 8.68854 5.98804 8.75 5.83333 8.75ZM5.83333 6.41667H5.25C5.09529 6.41667 4.94692 6.35521 4.83752 6.24581C4.72812 6.13642 4.66667 5.98804 4.66667 5.83333C4.66667 5.67862 4.72812 5.53025 4.83752 5.42085C4.94692 5.31146 5.09529 5.25 5.25 5.25H5.83333C5.98804 5.25 6.13642 5.31146 6.24581 5.42085C6.35521 5.53025 6.41667 5.67862 6.41667 5.83333C6.41667 5.98804 6.35521 6.13642 6.24581 6.24581C6.13642 6.35521 5.98804 6.41667 5.83333 6.41667ZM5.83333 4.08333H5.25C5.09529 4.08333 4.94692 4.02187 4.83752 3.91248C4.72812 3.80308 4.66667 3.65471 4.66667 3.5C4.66667 3.34529 4.72812 3.19692 4.83752 3.08752C4.94692 2.97812 5.09529 2.91667 5.25 2.91667H5.83333C5.98804 2.91667 6.13642 2.97812 6.24581 3.08752C6.35521 3.19692 6.41667 3.34529 6.41667 3.5C6.41667 3.65471 6.35521 3.80308 6.24581 3.91248C6.13642 4.02187 5.98804 4.08333 5.83333 4.08333ZM11.0833 2.91667H9.33333V14H11.0833C11.8566 13.9991 12.5979 13.6915 13.1447 13.1447C13.6915 12.5979 13.9991 11.8566 14 11.0833V5.83333C13.9991 5.06007 13.6915 4.31874 13.1447 3.77196C12.5979 3.22518 11.8566 2.91759 11.0833 2.91667ZM11.6667 11.0833C11.5513 11.0833 11.4385 11.0491 11.3426 10.985C11.2467 10.9209 11.1719 10.8298 11.1277 10.7232C11.0836 10.6166 11.072 10.4994 11.0945 10.3862C11.117 10.273 11.1726 10.1691 11.2542 10.0875C11.3358 10.0059 11.4397 9.95038 11.5529 9.92787C11.666 9.90537 11.7833 9.91692 11.8899 9.96107C11.9965 10.0052 12.0876 10.08 12.1517 10.1759C12.2158 10.2718 12.25 10.3846 12.25 10.5C12.25 10.6547 12.1885 10.8031 12.0791 10.9125C11.9697 11.0219 11.8214 11.0833 11.6667 11.0833ZM11.6667 8.75C11.5513 8.75 11.4385 8.71579 11.3426 8.65169C11.2467 8.58759 11.1719 8.49649 11.1277 8.3899C11.0836 8.28331 11.072 8.16602 11.0945 8.05286C11.117 7.93971 11.1726 7.83577 11.2542 7.75419C11.3358 7.67261 11.4397 7.61705 11.5529 7.59454C11.666 7.57203 11.7833 7.58359 11.8899 7.62774C11.9965 7.67189 12.0876 7.74665 12.1517 7.84258C12.2158 7.93851 12.25 8.05129 12.25 8.16667C12.25 8.32138 12.1885 8.46975 12.0791 8.57915C11.9697 8.68854 11.8214 8.75 11.6667 8.75ZM11.6667 6.41667C11.5513 6.41667 11.4385 6.38245 11.3426 6.31836C11.2467 6.25426 11.1719 6.16316 11.1277 6.05657C11.0836 5.94998 11.072 5.83269 11.0945 5.71953C11.117 5.60637 11.1726 5.50243 11.2542 5.42085C11.3358 5.33927 11.4397 5.28372 11.5529 5.26121C11.666 5.2387 11.7833 5.25025 11.8899 5.2944C11.9965 5.33855 12.0876 5.41332 12.1517 5.50925C12.2158 5.60518 12.25 5.71796 12.25 5.83333C12.25 5.98804 12.1885 6.13642 12.0791 6.24581C11.9697 6.35521 11.8214 6.41667 11.6667 6.41667Z" fill="#6B7280"/>
</svg>
