<svg width="96" height="24" viewBox="0 0 96 24" fill="none" xmlns="http://www.w3.org/2000/svg">
<path d="M0.788815 9.58618L1.86323 9.1711L2.29337 8.07351C2.35108 7.92624 2.58798 7.92624 2.64607 8.07351L3.07698 9.17265L4.15367 9.61253C4.2258 9.64199 4.27288 9.7133 4.27288 9.79236C4.27288 9.87142 4.22542 9.94274 4.15367 9.97219L3.07698 10.4121L2.64607 11.5112C2.61722 11.5848 2.54736 11.6329 2.46991 11.6329C2.39246 11.6329 2.32261 11.5845 2.29375 11.5112L1.86209 10.4098L0.78274 9.94545C0.711366 9.91444 0.665048 9.84236 0.666567 9.76329C0.668085 9.68423 0.716301 9.61408 0.788815 9.58618Z" fill="#7683F0"/>
<path d="M57.8593 2.06309L58.9337 1.64801L59.3639 0.550428C59.4216 0.403153 59.6585 0.403153 59.7166 0.550428L60.1475 1.64956L61.2242 2.08945C61.2963 2.1189 61.3434 2.19021 61.3434 2.26928C61.3434 2.34834 61.2959 2.41965 61.2242 2.44911L60.1475 2.88899L59.7166 3.98812C59.6877 4.06176 59.6179 4.10982 59.5404 4.10982C59.463 4.10982 59.3931 4.06137 59.3643 3.98812L58.9326 2.88667L57.8532 2.42236C57.7819 2.39136 57.7356 2.31927 57.7371 2.24021C57.7386 2.16115 57.7868 2.091 57.8593 2.06309Z" fill="#7683F0"/>
<path d="M88.5303 20.2263C88.5084 20.301 88.492 20.3851 88.4811 20.4784C88.4702 20.5718 88.4647 20.6699 88.4647 20.7726C88.4647 21.2862 88.6396 21.7111 88.9893 22.0472C89.339 22.3741 89.8963 22.5375 90.6613 22.5375C91.0438 22.5375 91.3826 22.5001 91.6776 22.4254C91.9836 22.3507 92.2459 22.248 92.4645 22.1173C92.683 21.9772 92.8688 21.8231 93.0218 21.655C93.1858 21.4776 93.3223 21.2909 93.4316 21.0948L94.4808 21.599C94.3278 21.8698 94.1365 22.1266 93.907 22.3694C93.6775 22.6028 93.4043 22.8083 93.0874 22.9857C92.7705 23.1631 92.4044 23.3032 91.9891 23.4059C91.5738 23.5086 91.0984 23.56 90.563 23.56C90.0712 23.56 89.6176 23.4946 89.2024 23.3639C88.798 23.2425 88.4483 23.0651 88.1533 22.8316C87.8582 22.5888 87.6287 22.2947 87.4648 21.9492C87.3008 21.6037 87.2189 21.2115 87.2189 20.7726C87.2189 20.1843 87.3282 19.6193 87.5467 19.0777C87.7653 18.5268 88.0822 18.0412 88.4975 17.621C88.9128 17.2008 89.4264 16.8646 90.0384 16.6125C90.6504 16.351 91.3443 16.2203 92.1202 16.2203C92.6666 16.2203 93.142 16.295 93.5464 16.4444C93.9507 16.5845 94.284 16.7806 94.5463 17.0327C94.8086 17.2755 95.0053 17.5556 95.1365 17.8731C95.2676 18.1813 95.3332 18.5035 95.3332 18.8396C95.3332 19.0917 95.3004 19.3345 95.2348 19.568L95.0545 20.2263H88.5303ZM91.9563 17.2568C91.5738 17.2568 91.2132 17.3082 90.8744 17.4109C90.5466 17.5043 90.246 17.6397 89.9728 17.8171C89.6996 17.9945 89.4646 18.2046 89.2679 18.4474C89.0712 18.6809 88.9182 18.9377 88.809 19.2178H94.0218C94.0545 19.0684 94.0709 18.9283 94.0709 18.7976C94.0709 18.2933 93.8688 17.9105 93.4644 17.649C93.0601 17.3876 92.5574 17.2568 91.9563 17.2568Z" fill="#7683F0"/>
<path d="M84.4143 18.1533C84.4247 18.1066 84.4299 18.0646 84.4299 18.0272C84.4403 17.9899 84.4455 17.9478 84.4455 17.9011C84.4455 17.7144 84.3883 17.5603 84.2739 17.4389C84.1595 17.3175 83.9827 17.2568 83.7436 17.2568C83.442 17.2568 83.2028 17.3502 83.026 17.537C82.8597 17.7237 82.7349 17.9852 82.6517 18.3214L81.4506 23.3639H80.2339L81.4662 18.1533C81.487 18.0599 81.4974 17.9618 81.4974 17.8591C81.4974 17.691 81.4454 17.551 81.3414 17.4389C81.2478 17.3175 81.071 17.2568 80.8111 17.2568C80.4783 17.2568 80.2287 17.3642 80.0623 17.579C79.896 17.7938 79.7764 18.0412 79.7036 18.3214L78.5025 23.3639H77.3014L78.9393 16.4164H80.1559L80.0155 17.0047H80.2027C80.3171 16.7339 80.4939 16.5378 80.7331 16.4164C80.9722 16.2857 81.2374 16.2203 81.5286 16.2203C81.851 16.2203 82.1109 16.2903 82.3085 16.4304C82.5165 16.5705 82.6465 16.7619 82.6985 17.0047H82.8857C83.0312 16.7526 83.2184 16.5611 83.4472 16.4304C83.676 16.2903 83.9567 16.2203 84.2895 16.2203C84.7575 16.2203 85.111 16.3464 85.3502 16.5985C85.5894 16.8413 85.709 17.1634 85.709 17.565C85.709 17.649 85.7038 17.7424 85.6934 17.8451C85.683 17.9385 85.6674 18.0225 85.6466 18.0972L84.6483 22.2713C84.6275 22.3461 84.6379 22.4021 84.6795 22.4394C84.7211 22.4768 84.7731 22.4955 84.8354 22.4955C84.8978 22.4955 84.955 22.4768 85.007 22.4394L85.6622 22.0052L86.3173 22.8316L85.6154 23.3079C85.501 23.3826 85.3554 23.4433 85.1786 23.49C85.0122 23.5367 84.8406 23.56 84.6639 23.56C84.5079 23.56 84.3571 23.5413 84.2115 23.504C84.0659 23.4666 83.9307 23.4106 83.806 23.3359C83.6916 23.2518 83.598 23.1491 83.5252 23.0277C83.4524 22.897 83.416 22.7383 83.416 22.5515C83.416 22.5048 83.416 22.4581 83.416 22.4114C83.4264 22.3647 83.4368 22.318 83.4472 22.2713L84.4143 18.1533Z" fill="#7683F0"/>
<path d="M73.9384 13.609C73.9384 13.3167 74.0338 13.0697 74.2246 12.868C74.4249 12.6563 74.6634 12.5504 74.9401 12.5504C75.2168 12.5504 75.4505 12.6563 75.6413 12.868C75.8417 13.0697 75.9419 13.3167 75.9419 13.609C75.9419 13.9014 75.8417 14.1535 75.6413 14.3652C75.4505 14.5668 75.2168 14.6677 74.9401 14.6677C74.6634 14.6677 74.4249 14.5668 74.2246 14.3652C74.0338 14.1535 73.9384 13.9014 73.9384 13.609ZM73.7094 17.1629C73.7285 17.0621 73.7141 16.9764 73.6664 16.9059C73.6283 16.8252 73.5567 16.7849 73.4518 16.7849C73.3755 16.7849 73.3039 16.805 73.2371 16.8454L71.5627 18.0552L70.9903 17.1629L72.679 15.9531C72.9747 15.7414 73.2944 15.6355 73.6378 15.6355C73.9622 15.6355 74.2436 15.7363 74.4822 15.938C74.7207 16.1396 74.8399 16.4522 74.8399 16.8756C74.8399 17.0369 74.8209 17.1982 74.7827 17.3595L73.7237 22.0326C73.6951 22.1535 73.7046 22.2493 73.7523 22.3199C73.8096 22.3905 73.8811 22.4257 73.967 22.4257C74.0338 22.4257 74.1053 22.4005 74.1816 22.3501L75.8274 21.1705L76.3998 22.0628L74.7541 23.2424C74.4488 23.4541 74.1292 23.56 73.7952 23.56C73.4709 23.56 73.1894 23.4592 72.9509 23.2575C72.7124 23.0559 72.5931 22.7433 72.5931 22.3199C72.5931 22.1586 72.6122 21.9973 72.6504 21.836L73.7094 17.1629Z" fill="#7683F0"/>
<path d="M63.7776 15.8472H66.3258L67.0073 12.5504H68.1628L67.4813 15.8472H70.0887V16.9361H67.2443L66.1924 22.0326C66.1628 22.1535 66.1727 22.2493 66.2221 22.3199C66.2813 22.3905 66.3554 22.4257 66.4443 22.4257C66.5134 22.4257 66.5875 22.4005 66.6665 22.3501L68.6369 20.9891L69.2295 21.8813L67.2591 23.2424C66.9431 23.4541 66.6171 23.56 66.2813 23.56C65.9356 23.56 65.6393 23.4541 65.3924 23.2424C65.1455 23.0307 65.0221 22.7131 65.0221 22.2896C65.0221 22.2191 65.027 22.1485 65.0369 22.0779C65.0468 21.9973 65.0616 21.9166 65.0813 21.836L66.0887 16.9361H63.7776V15.8472Z" fill="#7683F0"/>
<path d="M53.6753 13.4678V6.24279H51.3086V3.83446H48.9419V1.42612H51.3086V3.83446H53.6753V6.24279H56.0419V13.4678H53.6753ZM56.0419 6.24279V3.83446H58.4086V6.24279H56.0419Z" fill="#3E3E3E"/>
<path d="M37.0139 13.4678V1.42612H44.1139V3.83446H46.4806V11.0595H44.1139V13.4678H37.0139ZM39.3806 6.24279H44.0193V3.83446H39.3806V6.24279ZM39.3806 11.0595H44.0193V8.65113H39.3806V11.0595Z" fill="#3E3E3E"/>
<path d="M25.0859 13.4678V1.42612H32.1859V3.83446H34.5526V11.0595H32.1859V13.4678H25.0859ZM27.4526 6.24279H32.0913V3.83446H27.4526V6.24279ZM27.4526 11.0595H32.0913V8.65113H27.4526V11.0595Z" fill="#3E3E3E"/>
<path d="M15.5247 13.4678V11.0595H13.158V3.83446H15.5247V1.42612H20.258V3.83446H22.6247V11.0595H20.258V13.4678H15.5247ZM15.5247 10.9631H20.258V3.93079H15.5247V10.9631Z" fill="#3E3E3E"/>
<path d="M8.33 11.0595V1.42611H10.6967V11.0595H8.33Z" fill="#3E3E3E"/>
<path d="M8.32999 11.0616L3.60136 11.0617V13.4678L8.33 13.4678L8.32999 11.0616Z" fill="#3E3E3E"/>
<path fill-rule="evenodd" clip-rule="evenodd" d="M95.3332 7.50434H63.7776V6.31164H95.3332V7.50434Z" fill="#3E3E3E"/>
<path fill-rule="evenodd" clip-rule="evenodd" d="M0.666504 20.4865H58.3681V19.2938H0.666504V20.4865Z" fill="#7683F0"/>
<path d="M66.3875 6.90811C68.0343 8.27934 68.2651 9.13011 68.2856 10.578H67.0993C67.2179 9.31645 66.2688 7.21811 63.7776 7.56216V6.25406C66.2688 6.59811 67.2179 4.49977 67.0993 3.23826H68.2856C68.2651 4.68611 68.0343 5.53688 66.3875 6.90811Z" fill="#3E3E3E"/>
<path d="M55.7582 19.8901C54.1114 21.2614 53.8806 22.1121 53.8601 23.56H55.0464C54.9278 22.2985 55.8769 20.2001 58.3681 20.5442V19.2361C55.8769 19.5801 54.9278 17.4818 55.0464 16.2203H53.8601C53.8806 17.6681 54.1114 18.5189 55.7582 19.8901Z" fill="#7683F0"/>
</svg>
