<svg width="16" height="12" viewBox="0 0 16 12" fill="none" xmlns="http://www.w3.org/2000/svg">
<path d="M15.4184 6.44495C15.4996 6.23226 15.5208 5.99821 15.4794 5.77243C15.438 5.54664 15.3359 5.33926 15.1859 5.17653L10.8999 0.521765C10.8011 0.41062 10.6829 0.321968 10.5521 0.26098C10.4214 0.199992 10.2808 0.167891 10.1385 0.166548C9.99627 0.165205 9.85517 0.194648 9.72349 0.25316C9.59181 0.311671 9.47217 0.398079 9.37157 0.507341C9.27096 0.616603 9.1914 0.746531 9.13752 0.889544C9.08365 1.03256 9.05654 1.18579 9.05777 1.34031C9.05901 1.49482 9.08857 1.64752 9.14472 1.78949C9.20088 1.93147 9.28251 2.05988 9.38485 2.16722L11.8429 4.83673H1.5715C1.28732 4.83673 1.01478 4.95933 0.813834 5.17757C0.61289 5.3958 0.5 5.69179 0.5 6.00042C0.5 6.30905 0.61289 6.60504 0.813834 6.82327C1.01478 7.04151 1.28732 7.16411 1.5715 7.16411H11.8429L9.38592 9.83245C9.28358 9.9398 9.20195 10.0682 9.14579 10.2102C9.08964 10.3522 9.06008 10.5049 9.05884 10.6594C9.05761 10.8139 9.08472 10.9671 9.13859 11.1101C9.19247 11.2531 9.27203 11.3831 9.37264 11.4923C9.47324 11.6016 9.59288 11.688 9.72456 11.7465C9.85624 11.805 9.99734 11.8345 10.1396 11.8331C10.2819 11.8318 10.4225 11.7997 10.5532 11.7387C10.6839 11.6777 10.8022 11.5891 10.901 11.4779L15.187 6.82315C15.2863 6.71481 15.3649 6.5863 15.4184 6.44495Z" fill="#111928"/>
</svg>
