<svg width="10" height="6" viewBox="0 0 10 6" fill="none" xmlns="http://www.w3.org/2000/svg">
<path d="M4.6961 5.04425L4.69616 5.0443C4.77563 5.11986 4.8886 5.16651 5.01141 5.16659L4.6961 5.04425ZM4.6961 5.04425L0.962767 1.49596L0.962819 1.49591M4.6961 5.04425L0.962819 1.49591M0.962819 1.49591L0.956431 1.49004M0.962819 1.49591L0.956431 1.49004M0.956431 1.49004C0.916055 1.45298 0.885352 1.41005 0.864773 1.36452C0.844226 1.31906 0.833825 1.27118 0.833388 1.22346C0.832952 1.17574 0.842476 1.12778 0.862132 1.08212C0.88182 1.03638 0.911639 0.99309 0.951198 0.955491C0.990813 0.91784 1.03931 0.886775 1.09449 0.865318C1.14971 0.843847 1.20968 0.832765 1.27069 0.833268C1.3317 0.833772 1.39139 0.845843 1.44609 0.868176C1.50076 0.890495 1.54855 0.922274 1.58734 0.960448L1.58729 0.960502M0.956431 1.49004L1.58729 0.960502M1.58729 0.960502L1.59359 0.966486M1.58729 0.960502L1.59359 0.966486M1.59359 0.966486L4.66705 3.88761L5.01151 4.215M1.59359 0.966486L5.01151 4.215M5.01151 4.215L5.35597 3.88761M5.01151 4.215L5.35597 3.88761M5.35597 3.88761L8.42567 0.970061C8.50576 0.89778 8.61718 0.854078 8.73735 0.85507C8.85882 0.856073 8.97026 0.902564 9.04888 0.977291C9.12668 1.05124 9.16584 1.1458 9.16669 1.23899C9.16754 1.33113 9.13097 1.425 9.05649 1.49954L5.32692 5.04425L5.32686 5.0443M5.35597 3.88761L5.32686 5.0443M5.32686 5.0443C5.24739 5.11986 5.13442 5.16651 5.01161 5.16659L5.32686 5.0443Z" fill="#6B7280" stroke="#6B7280"/>
</svg>
