<svg width="16" height="12" viewBox="0 0 16 12" fill="none" xmlns="http://www.w3.org/2000/svg">
<path d="M14.4286 4.84657H4.15849L6.61514 2.17194C6.71747 2.06434 6.79909 1.93563 6.85524 1.79332C6.91139 1.65101 6.94094 1.49795 6.94218 1.34307C6.94342 1.18819 6.91631 1.0346 6.86244 0.891249C6.80857 0.747898 6.72902 0.617664 6.62842 0.508144C6.52783 0.398625 6.40821 0.312013 6.27654 0.253364C6.14487 0.194715 6.0038 0.165202 5.86154 0.166548C5.71929 0.167894 5.5787 0.200071 5.44799 0.261203C5.31728 0.322335 5.19906 0.411196 5.10023 0.522602L0.814755 5.18834C0.714982 5.29669 0.635823 5.4254 0.581812 5.56711C0.527802 5.70883 0.5 5.86074 0.5 6.01417C0.5 6.1676 0.527802 6.31952 0.581812 6.46123C0.635823 6.60294 0.714982 6.73165 0.814755 6.84L5.10023 11.5057C5.30229 11.7182 5.57292 11.8358 5.85383 11.8331C6.13474 11.8305 6.40345 11.7078 6.60209 11.4915C6.80073 11.2753 6.91341 10.9827 6.91585 10.6769C6.91829 10.371 6.8103 10.0764 6.61514 9.8564L4.15849 7.17944H14.4286C14.7128 7.17944 14.9853 7.05655 15.1862 6.8378C15.3871 6.61905 15.5 6.32236 15.5 6.013C15.5 5.70365 15.3871 5.40696 15.1862 5.18821C14.9853 4.96946 14.7128 4.84657 14.4286 4.84657Z" fill="#111928"/>
</svg>
