<svg width="16" height="16" viewBox="0 0 16 16" fill="none" xmlns="http://www.w3.org/2000/svg">
<path d="M0.5 9.88925V9.13925C0.5 8.54251 0.737053 7.97022 1.15901 7.54826C1.58097 7.1263 2.15326 6.88925 2.75 6.88925H7.25V5.25125C6.81282 5.09669 6.43407 4.81083 6.16557 4.43277C5.89706 4.05472 5.75192 3.60295 5.75 3.13925C5.75 2.03975 7.10975 0.84875 7.52675 0.50975L8 0.125L8.47325 0.50975C8.89025 0.84875 10.25 2.03975 10.25 3.13925C10.2481 3.60295 10.1029 4.05472 9.83443 4.43277C9.56593 4.81083 9.18718 5.09669 8.75 5.25125V6.88925H13.25C13.8467 6.88925 14.419 7.1263 14.841 7.54826C15.2629 7.97022 15.5 8.54251 15.5 9.13925V9.88925C15.5 10.1465 14.9885 10.6392 14.1875 10.6392C13.3708 10.6392 12.875 10.1187 12.875 9.88925H11.375C11.375 10.1465 10.8635 10.6392 10.0625 10.6392C9.24575 10.6392 8.75 10.1187 8.75 9.88925H7.25C7.25 10.1465 6.7385 10.6392 5.9375 10.6392C5.12075 10.6392 4.625 10.1187 4.625 9.88925H3.125C3.125 10.1465 2.6135 10.6392 1.8125 10.6392C0.99575 10.6392 0.5 10.1187 0.5 9.88925ZM15.5 11.858C15.0867 12.0415 14.6397 12.1373 14.1875 12.1392C13.4323 12.145 12.7002 11.8788 12.125 11.3892C11.5465 11.8715 10.8177 12.1365 10.0645 12.1386C9.31137 12.1407 8.58114 11.8796 8 11.4005C7.41886 11.8796 6.68863 12.1407 5.93547 12.1386C5.18231 12.1365 4.45352 11.8715 3.875 11.3892C3.29984 11.8788 2.56775 12.145 1.8125 12.1392C1.36026 12.1373 0.913337 12.0415 0.5 11.858V13.1392C0.5 14.2438 1.39543 15.1392 2.5 15.1392H13.5C14.6046 15.1392 15.5 14.2438 15.5 13.1392V11.858Z" fill="#D1D5DB"/>
</svg>
