<svg width="12" height="12" viewBox="0 0 12 12" fill="none" xmlns="http://www.w3.org/2000/svg">
<mask id="path-1-inside-1_15031_4727" fill="white">
<path d="M0 10.8C0 11.1183 0.126428 11.4235 0.351472 11.6485C0.576515 11.8736 0.88174 12 1.2 12H10.8C11.1183 12 11.4235 11.8736 11.6485 11.6485C11.8736 11.4235 12 11.1183 12 10.8V4.8H0V10.8ZM8.4 6.3C8.4 6.22044 8.43161 6.14413 8.48787 6.08787C8.54413 6.03161 8.62044 6 8.7 6H9.3C9.37957 6 9.45587 6.03161 9.51213 6.08787C9.56839 6.14413 9.6 6.22044 9.6 6.3V6.9C9.6 6.97957 9.56839 7.05587 9.51213 7.11213C9.45587 7.16839 9.37957 7.2 9.3 7.2H8.7C8.62044 7.2 8.54413 7.16839 8.48787 7.11213C8.43161 7.05587 8.4 6.97957 8.4 6.9V6.3ZM8.4 8.7C8.4 8.62044 8.43161 8.54413 8.48787 8.48787C8.54413 8.43161 8.62044 8.4 8.7 8.4H9.3C9.37957 8.4 9.45587 8.43161 9.51213 8.48787C9.56839 8.54413 9.6 8.62044 9.6 8.7V9.3C9.6 9.37957 9.56839 9.45587 9.51213 9.51213C9.45587 9.56839 9.37957 9.6 9.3 9.6H8.7C8.62044 9.6 8.54413 9.56839 8.48787 9.51213C8.43161 9.45587 8.4 9.37957 8.4 9.3V8.7ZM5.4 6.3C5.4 6.22044 5.43161 6.14413 5.48787 6.08787C5.54413 6.03161 5.62044 6 5.7 6H6.3C6.37957 6 6.45587 6.03161 6.51213 6.08787C6.56839 6.14413 6.6 6.22044 6.6 6.3V6.9C6.6 6.97957 6.56839 7.05587 6.51213 7.11213C6.45587 7.16839 6.37957 7.2 6.3 7.2H5.7C5.62044 7.2 5.54413 7.16839 5.48787 7.11213C5.43161 7.05587 5.4 6.97957 5.4 6.9V6.3ZM5.4 8.7C5.4 8.62044 5.43161 8.54413 5.48787 8.48787C5.54413 8.43161 5.62044 8.4 5.7 8.4H6.3C6.37957 8.4 6.45587 8.43161 6.51213 8.48787C6.56839 8.54413 6.6 8.62044 6.6 8.7V9.3C6.6 9.37957 6.56839 9.45587 6.51213 9.51213C6.45587 9.56839 6.37957 9.6 6.3 9.6H5.7C5.62044 9.6 5.54413 9.56839 5.48787 9.51213C5.43161 9.45587 5.4 9.37957 5.4 9.3V8.7ZM2.4 6.3C2.4 6.22044 2.43161 6.14413 2.48787 6.08787C2.54413 6.03161 2.62043 6 2.7 6H3.3C3.37957 6 3.45587 6.03161 3.51213 6.08787C3.56839 6.14413 3.6 6.22044 3.6 6.3V6.9C3.6 6.97957 3.56839 7.05587 3.51213 7.11213C3.45587 7.16839 3.37957 7.2 3.3 7.2H2.7C2.62043 7.2 2.54413 7.16839 2.48787 7.11213C2.43161 7.05587 2.4 6.97957 2.4 6.9V6.3ZM2.4 8.7C2.4 8.62044 2.43161 8.54413 2.48787 8.48787C2.54413 8.43161 2.62043 8.4 2.7 8.4H3.3C3.37957 8.4 3.45587 8.43161 3.51213 8.48787C3.56839 8.54413 3.6 8.62044 3.6 8.7V9.3C3.6 9.37957 3.56839 9.45587 3.51213 9.51213C3.45587 9.56839 3.37957 9.6 3.3 9.6H2.7C2.62043 9.6 2.54413 9.56839 2.48787 9.51213C2.43161 9.45587 2.4 9.37957 2.4 9.3V8.7Z"/>
<path d="M12 2.4C12 2.08174 11.8736 1.77652 11.6485 1.55147C11.4235 1.32643 11.1183 1.2 10.8 1.2H9.6V0.6C9.6 0.44087 9.53679 0.288258 9.42426 0.175736C9.31174 0.0632141 9.15913 0 9 0C8.84087 0 8.68826 0.0632141 8.57574 0.175736C8.46321 0.288258 8.4 0.44087 8.4 0.6V1.2H6.6V0.6C6.6 0.44087 6.53679 0.288258 6.42426 0.175736C6.31174 0.0632141 6.15913 0 6 0C5.84087 0 5.68826 0.0632141 5.57574 0.175736C5.46321 0.288258 5.4 0.44087 5.4 0.6V1.2H3.6V0.6C3.6 0.44087 3.53679 0.288258 3.42426 0.175736C3.31174 0.0632141 3.15913 0 3 0C2.84087 0 2.68826 0.0632141 2.57574 0.175736C2.46321 0.288258 2.4 0.44087 2.4 0.6V1.2H1.2C0.88174 1.2 0.576515 1.32643 0.351472 1.55147C0.126428 1.77652 0 2.08174 0 2.4V3.6H12V2.4Z"/>
</mask>
<path d="M0 10.8C0 11.1183 0.126428 11.4235 0.351472 11.6485C0.576515 11.8736 0.88174 12 1.2 12H10.8C11.1183 12 11.4235 11.8736 11.6485 11.6485C11.8736 11.4235 12 11.1183 12 10.8V4.8H0V10.8ZM8.4 6.3C8.4 6.22044 8.43161 6.14413 8.48787 6.08787C8.54413 6.03161 8.62044 6 8.7 6H9.3C9.37957 6 9.45587 6.03161 9.51213 6.08787C9.56839 6.14413 9.6 6.22044 9.6 6.3V6.9C9.6 6.97957 9.56839 7.05587 9.51213 7.11213C9.45587 7.16839 9.37957 7.2 9.3 7.2H8.7C8.62044 7.2 8.54413 7.16839 8.48787 7.11213C8.43161 7.05587 8.4 6.97957 8.4 6.9V6.3ZM8.4 8.7C8.4 8.62044 8.43161 8.54413 8.48787 8.48787C8.54413 8.43161 8.62044 8.4 8.7 8.4H9.3C9.37957 8.4 9.45587 8.43161 9.51213 8.48787C9.56839 8.54413 9.6 8.62044 9.6 8.7V9.3C9.6 9.37957 9.56839 9.45587 9.51213 9.51213C9.45587 9.56839 9.37957 9.6 9.3 9.6H8.7C8.62044 9.6 8.54413 9.56839 8.48787 9.51213C8.43161 9.45587 8.4 9.37957 8.4 9.3V8.7ZM5.4 6.3C5.4 6.22044 5.43161 6.14413 5.48787 6.08787C5.54413 6.03161 5.62044 6 5.7 6H6.3C6.37957 6 6.45587 6.03161 6.51213 6.08787C6.56839 6.14413 6.6 6.22044 6.6 6.3V6.9C6.6 6.97957 6.56839 7.05587 6.51213 7.11213C6.45587 7.16839 6.37957 7.2 6.3 7.2H5.7C5.62044 7.2 5.54413 7.16839 5.48787 7.11213C5.43161 7.05587 5.4 6.97957 5.4 6.9V6.3ZM5.4 8.7C5.4 8.62044 5.43161 8.54413 5.48787 8.48787C5.54413 8.43161 5.62044 8.4 5.7 8.4H6.3C6.37957 8.4 6.45587 8.43161 6.51213 8.48787C6.56839 8.54413 6.6 8.62044 6.6 8.7V9.3C6.6 9.37957 6.56839 9.45587 6.51213 9.51213C6.45587 9.56839 6.37957 9.6 6.3 9.6H5.7C5.62044 9.6 5.54413 9.56839 5.48787 9.51213C5.43161 9.45587 5.4 9.37957 5.4 9.3V8.7ZM2.4 6.3C2.4 6.22044 2.43161 6.14413 2.48787 6.08787C2.54413 6.03161 2.62043 6 2.7 6H3.3C3.37957 6 3.45587 6.03161 3.51213 6.08787C3.56839 6.14413 3.6 6.22044 3.6 6.3V6.9C3.6 6.97957 3.56839 7.05587 3.51213 7.11213C3.45587 7.16839 3.37957 7.2 3.3 7.2H2.7C2.62043 7.2 2.54413 7.16839 2.48787 7.11213C2.43161 7.05587 2.4 6.97957 2.4 6.9V6.3ZM2.4 8.7C2.4 8.62044 2.43161 8.54413 2.48787 8.48787C2.54413 8.43161 2.62043 8.4 2.7 8.4H3.3C3.37957 8.4 3.45587 8.43161 3.51213 8.48787C3.56839 8.54413 3.6 8.62044 3.6 8.7V9.3C3.6 9.37957 3.56839 9.45587 3.51213 9.51213C3.45587 9.56839 3.37957 9.6 3.3 9.6H2.7C2.62043 9.6 2.54413 9.56839 2.48787 9.51213C2.43161 9.45587 2.4 9.37957 2.4 9.3V8.7Z" fill="#6B7280"/>
<path d="M12 2.4C12 2.08174 11.8736 1.77652 11.6485 1.55147C11.4235 1.32643 11.1183 1.2 10.8 1.2H9.6V0.6C9.6 0.44087 9.53679 0.288258 9.42426 0.175736C9.31174 0.0632141 9.15913 0 9 0C8.84087 0 8.68826 0.0632141 8.57574 0.175736C8.46321 0.288258 8.4 0.44087 8.4 0.6V1.2H6.6V0.6C6.6 0.44087 6.53679 0.288258 6.42426 0.175736C6.31174 0.0632141 6.15913 0 6 0C5.84087 0 5.68826 0.0632141 5.57574 0.175736C5.46321 0.288258 5.4 0.44087 5.4 0.6V1.2H3.6V0.6C3.6 0.44087 3.53679 0.288258 3.42426 0.175736C3.31174 0.0632141 3.15913 0 3 0C2.84087 0 2.68826 0.0632141 2.57574 0.175736C2.46321 0.288258 2.4 0.44087 2.4 0.6V1.2H1.2C0.88174 1.2 0.576515 1.32643 0.351472 1.55147C0.126428 1.77652 0 2.08174 0 2.4V3.6H12V2.4Z" fill="#6B7280"/>
<path d="M0 10.8C0 11.1183 0.126428 11.4235 0.351472 11.6485C0.576515 11.8736 0.88174 12 1.2 12H10.8C11.1183 12 11.4235 11.8736 11.6485 11.6485C11.8736 11.4235 12 11.1183 12 10.8V4.8H0V10.8ZM8.4 6.3C8.4 6.22044 8.43161 6.14413 8.48787 6.08787C8.54413 6.03161 8.62044 6 8.7 6H9.3C9.37957 6 9.45587 6.03161 9.51213 6.08787C9.56839 6.14413 9.6 6.22044 9.6 6.3V6.9C9.6 6.97957 9.56839 7.05587 9.51213 7.11213C9.45587 7.16839 9.37957 7.2 9.3 7.2H8.7C8.62044 7.2 8.54413 7.16839 8.48787 7.11213C8.43161 7.05587 8.4 6.97957 8.4 6.9V6.3ZM8.4 8.7C8.4 8.62044 8.43161 8.54413 8.48787 8.48787C8.54413 8.43161 8.62044 8.4 8.7 8.4H9.3C9.37957 8.4 9.45587 8.43161 9.51213 8.48787C9.56839 8.54413 9.6 8.62044 9.6 8.7V9.3C9.6 9.37957 9.56839 9.45587 9.51213 9.51213C9.45587 9.56839 9.37957 9.6 9.3 9.6H8.7C8.62044 9.6 8.54413 9.56839 8.48787 9.51213C8.43161 9.45587 8.4 9.37957 8.4 9.3V8.7ZM5.4 6.3C5.4 6.22044 5.43161 6.14413 5.48787 6.08787C5.54413 6.03161 5.62044 6 5.7 6H6.3C6.37957 6 6.45587 6.03161 6.51213 6.08787C6.56839 6.14413 6.6 6.22044 6.6 6.3V6.9C6.6 6.97957 6.56839 7.05587 6.51213 7.11213C6.45587 7.16839 6.37957 7.2 6.3 7.2H5.7C5.62044 7.2 5.54413 7.16839 5.48787 7.11213C5.43161 7.05587 5.4 6.97957 5.4 6.9V6.3ZM5.4 8.7C5.4 8.62044 5.43161 8.54413 5.48787 8.48787C5.54413 8.43161 5.62044 8.4 5.7 8.4H6.3C6.37957 8.4 6.45587 8.43161 6.51213 8.48787C6.56839 8.54413 6.6 8.62044 6.6 8.7V9.3C6.6 9.37957 6.56839 9.45587 6.51213 9.51213C6.45587 9.56839 6.37957 9.6 6.3 9.6H5.7C5.62044 9.6 5.54413 9.56839 5.48787 9.51213C5.43161 9.45587 5.4 9.37957 5.4 9.3V8.7ZM2.4 6.3C2.4 6.22044 2.43161 6.14413 2.48787 6.08787C2.54413 6.03161 2.62043 6 2.7 6H3.3C3.37957 6 3.45587 6.03161 3.51213 6.08787C3.56839 6.14413 3.6 6.22044 3.6 6.3V6.9C3.6 6.97957 3.56839 7.05587 3.51213 7.11213C3.45587 7.16839 3.37957 7.2 3.3 7.2H2.7C2.62043 7.2 2.54413 7.16839 2.48787 7.11213C2.43161 7.05587 2.4 6.97957 2.4 6.9V6.3ZM2.4 8.7C2.4 8.62044 2.43161 8.54413 2.48787 8.48787C2.54413 8.43161 2.62043 8.4 2.7 8.4H3.3C3.37957 8.4 3.45587 8.43161 3.51213 8.48787C3.56839 8.54413 3.6 8.62044 3.6 8.7V9.3C3.6 9.37957 3.56839 9.45587 3.51213 9.51213C3.45587 9.56839 3.37957 9.6 3.3 9.6H2.7C2.62043 9.6 2.54413 9.56839 2.48787 9.51213C2.43161 9.45587 2.4 9.37957 2.4 9.3V8.7Z" stroke="#6B7280" stroke-width="2" mask="url(#path-1-inside-1_15031_4727)"/>
<path d="M12 2.4C12 2.08174 11.8736 1.77652 11.6485 1.55147C11.4235 1.32643 11.1183 1.2 10.8 1.2H9.6V0.6C9.6 0.44087 9.53679 0.288258 9.42426 0.175736C9.31174 0.0632141 9.15913 0 9 0C8.84087 0 8.68826 0.0632141 8.57574 0.175736C8.46321 0.288258 8.4 0.44087 8.4 0.6V1.2H6.6V0.6C6.6 0.44087 6.53679 0.288258 6.42426 0.175736C6.31174 0.0632141 6.15913 0 6 0C5.84087 0 5.68826 0.0632141 5.57574 0.175736C5.46321 0.288258 5.4 0.44087 5.4 0.6V1.2H3.6V0.6C3.6 0.44087 3.53679 0.288258 3.42426 0.175736C3.31174 0.0632141 3.15913 0 3 0C2.84087 0 2.68826 0.0632141 2.57574 0.175736C2.46321 0.288258 2.4 0.44087 2.4 0.6V1.2H1.2C0.88174 1.2 0.576515 1.32643 0.351472 1.55147C0.126428 1.77652 0 2.08174 0 2.4V3.6H12V2.4Z" stroke="#6B7280" stroke-width="2" mask="url(#path-1-inside-1_15031_4727)"/>
</svg>
