<svg width="16" height="12" viewBox="0 0 16 12" fill="none" xmlns="http://www.w3.org/2000/svg">
<rect y="0.399902" width="16" height="11.2" rx="2" fill="white"/>
<mask id="mask0_14838_4175" style="mask-type:luminance" maskUnits="userSpaceOnUse" x="0" y="0" width="16" height="12">
<rect y="0.399902" width="16" height="11.2" rx="2" fill="white"/>
</mask>
<g mask="url(#mask0_14838_4175)">
<path fill-rule="evenodd" clip-rule="evenodd" d="M16 0.399902H0V1.14657H16V0.399902ZM16 1.89324H0V2.6399H16V1.89324ZM0 3.38657H16V4.13324H0V3.38657ZM16 4.8799H0V5.62657H16V4.8799ZM0 6.37324H16V7.1199H0V6.37324ZM16 7.86657H0V8.61324H16V7.86657ZM0 9.3599H16V10.1066H0V9.3599ZM16 10.8532H0V11.5999H16V10.8532Z" fill="#D02F44"/>
<rect y="0.399902" width="6.85714" height="5.22667" fill="#46467F"/>
<g filter="url(#filter0_d_14838_4175)">
<path fill-rule="evenodd" clip-rule="evenodd" d="M1.52381 1.51982C1.52381 1.726 1.35325 1.89315 1.14285 1.89315C0.93246 1.89315 0.761902 1.726 0.761902 1.51982C0.761902 1.31363 0.93246 1.14648 1.14285 1.14648C1.35325 1.14648 1.52381 1.31363 1.52381 1.51982ZM3.04762 1.51982C3.04762 1.726 2.87706 1.89315 2.66666 1.89315C2.45627 1.89315 2.28571 1.726 2.28571 1.51982C2.28571 1.31363 2.45627 1.14648 2.66666 1.14648C2.87706 1.14648 3.04762 1.31363 3.04762 1.51982ZM4.19047 1.89315C4.40087 1.89315 4.57143 1.726 4.57143 1.51982C4.57143 1.31363 4.40087 1.14648 4.19047 1.14648C3.98008 1.14648 3.80952 1.31363 3.80952 1.51982C3.80952 1.726 3.98008 1.89315 4.19047 1.89315ZM6.09524 1.51982C6.09524 1.726 5.92468 1.89315 5.71428 1.89315C5.50389 1.89315 5.33333 1.726 5.33333 1.51982C5.33333 1.31363 5.50389 1.14648 5.71428 1.14648C5.92468 1.14648 6.09524 1.31363 6.09524 1.51982ZM1.90476 2.63982C2.11515 2.63982 2.28571 2.47267 2.28571 2.26648C2.28571 2.0603 2.11515 1.89315 1.90476 1.89315C1.69436 1.89315 1.52381 2.0603 1.52381 2.26648C1.52381 2.47267 1.69436 2.63982 1.90476 2.63982ZM3.80952 2.26648C3.80952 2.47267 3.63896 2.63982 3.42857 2.63982C3.21817 2.63982 3.04762 2.47267 3.04762 2.26648C3.04762 2.0603 3.21817 1.89315 3.42857 1.89315C3.63896 1.89315 3.80952 2.0603 3.80952 2.26648ZM4.95238 2.63982C5.16277 2.63982 5.33333 2.47267 5.33333 2.26648C5.33333 2.0603 5.16277 1.89315 4.95238 1.89315C4.74198 1.89315 4.57143 2.0603 4.57143 2.26648C4.57143 2.47267 4.74198 2.63982 4.95238 2.63982ZM6.09524 3.01315C6.09524 3.21934 5.92468 3.38648 5.71428 3.38648C5.50389 3.38648 5.33333 3.21934 5.33333 3.01315C5.33333 2.80696 5.50389 2.63982 5.71428 2.63982C5.92468 2.63982 6.09524 2.80696 6.09524 3.01315ZM4.19047 3.38648C4.40087 3.38648 4.57143 3.21934 4.57143 3.01315C4.57143 2.80696 4.40087 2.63982 4.19047 2.63982C3.98008 2.63982 3.80952 2.80696 3.80952 3.01315C3.80952 3.21934 3.98008 3.38648 4.19047 3.38648ZM3.04762 3.01315C3.04762 3.21934 2.87706 3.38648 2.66666 3.38648C2.45627 3.38648 2.28571 3.21934 2.28571 3.01315C2.28571 2.80696 2.45627 2.63982 2.66666 2.63982C2.87706 2.63982 3.04762 2.80696 3.04762 3.01315ZM1.14285 3.38648C1.35325 3.38648 1.52381 3.21934 1.52381 3.01315C1.52381 2.80696 1.35325 2.63982 1.14285 2.63982C0.93246 2.63982 0.761902 2.80696 0.761902 3.01315C0.761902 3.21934 0.93246 3.38648 1.14285 3.38648ZM2.28571 3.75982C2.28571 3.966 2.11515 4.13315 1.90476 4.13315C1.69436 4.13315 1.52381 3.966 1.52381 3.75982C1.52381 3.55363 1.69436 3.38648 1.90476 3.38648C2.11515 3.38648 2.28571 3.55363 2.28571 3.75982ZM3.42857 4.13315C3.63896 4.13315 3.80952 3.966 3.80952 3.75982C3.80952 3.55363 3.63896 3.38648 3.42857 3.38648C3.21817 3.38648 3.04762 3.55363 3.04762 3.75982C3.04762 3.966 3.21817 4.13315 3.42857 4.13315ZM5.33333 3.75982C5.33333 3.966 5.16277 4.13315 4.95238 4.13315C4.74198 4.13315 4.57143 3.966 4.57143 3.75982C4.57143 3.55363 4.74198 3.38648 4.95238 3.38648C5.16277 3.38648 5.33333 3.55363 5.33333 3.75982ZM5.71428 4.87982C5.92468 4.87982 6.09524 4.71267 6.09524 4.50648C6.09524 4.3003 5.92468 4.13315 5.71428 4.13315C5.50389 4.13315 5.33333 4.3003 5.33333 4.50648C5.33333 4.71267 5.50389 4.87982 5.71428 4.87982ZM4.57143 4.50648C4.57143 4.71267 4.40087 4.87982 4.19047 4.87982C3.98008 4.87982 3.80952 4.71267 3.80952 4.50648C3.80952 4.3003 3.98008 4.13315 4.19047 4.13315C4.40087 4.13315 4.57143 4.3003 4.57143 4.50648ZM2.66666 4.87982C2.87706 4.87982 3.04762 4.71267 3.04762 4.50648C3.04762 4.3003 2.87706 4.13315 2.66666 4.13315C2.45627 4.13315 2.28571 4.3003 2.28571 4.50648C2.28571 4.71267 2.45627 4.87982 2.66666 4.87982ZM1.52381 4.50648C1.52381 4.71267 1.35325 4.87982 1.14285 4.87982C0.93246 4.87982 0.761902 4.71267 0.761902 4.50648C0.761902 4.3003 0.93246 4.13315 1.14285 4.13315C1.35325 4.13315 1.52381 4.3003 1.52381 4.50648Z" fill="url(#paint0_linear_14838_4175)"/>
</g>
</g>
<defs>
<filter id="filter0_d_14838_4175" x="0.761902" y="1.14648" width="5.33331" height="4.7334" filterUnits="userSpaceOnUse" color-interpolation-filters="sRGB">
<feFlood flood-opacity="0" result="BackgroundImageFix"/>
<feColorMatrix in="SourceAlpha" type="matrix" values="0 0 0 0 0 0 0 0 0 0 0 0 0 0 0 0 0 0 127 0" result="hardAlpha"/>
<feOffset dy="1"/>
<feColorMatrix type="matrix" values="0 0 0 0 0 0 0 0 0 0 0 0 0 0 0 0 0 0 0.06 0"/>
<feBlend mode="normal" in2="BackgroundImageFix" result="effect1_dropShadow_14838_4175"/>
<feBlend mode="normal" in="SourceGraphic" in2="effect1_dropShadow_14838_4175" result="shape"/>
</filter>
<linearGradient id="paint0_linear_14838_4175" x1="0.761902" y1="1.14648" x2="0.761902" y2="4.87982" gradientUnits="userSpaceOnUse">
<stop stop-color="white"/>
<stop offset="1" stop-color="#F0F0F0"/>
</linearGradient>
</defs>
</svg>
