<svg width="10" height="9" viewBox="0 0 10 9" fill="none" xmlns="http://www.w3.org/2000/svg">
<path d="M5.83208 4.50701L8.91967 1.41942C8.97538 1.36561 9.01982 1.30124 9.05039 1.23007C9.08096 1.15891 9.09706 1.08236 9.09773 1.00491C9.0984 0.927452 9.08364 0.850638 9.05431 0.778949C9.02498 0.707259 8.98167 0.642129 8.9269 0.587358C8.87213 0.532587 8.807 0.489273 8.73531 0.459943C8.66362 0.430612 8.5868 0.415853 8.50935 0.416526C8.43189 0.417199 8.35535 0.433291 8.28418 0.463863C8.21301 0.494435 8.14864 0.538875 8.09483 0.594589L5.00725 3.68217L1.91967 0.594589C1.80965 0.48833 1.6623 0.429533 1.50935 0.430862C1.3564 0.432191 1.21009 0.49354 1.10194 0.601695C0.993784 0.709849 0.932435 0.856156 0.931106 1.0091C0.929777 1.16205 0.988574 1.3094 1.09483 1.41942L4.18242 4.50701L1.09483 7.59459C1.03912 7.6484 0.994679 7.71277 0.964107 7.78394C0.933535 7.85511 0.917443 7.93165 0.91677 8.00911C0.916097 8.08656 0.930856 8.16337 0.960187 8.23506C0.989517 8.30675 1.03283 8.37188 1.0876 8.42665C1.14237 8.48142 1.2075 8.52474 1.27919 8.55407C1.35088 8.5834 1.4277 8.59816 1.50515 8.59749C1.5826 8.59681 1.65915 8.58072 1.73032 8.55015C1.80149 8.51958 1.86586 8.47514 1.91967 8.41942L5.00725 5.33184L8.09483 8.41942C8.20485 8.52568 8.3522 8.58448 8.50515 8.58315C8.6581 8.58182 8.80441 8.52047 8.91256 8.41232C9.02072 8.30416 9.08206 8.15785 9.08339 8.00491C9.08472 7.85196 9.02593 7.70461 8.91967 7.59459L5.83208 4.50701Z" fill="#F05252"/>
</svg>
