<svg width="16" height="16" viewBox="0 0 16 16" fill="none" xmlns="http://www.w3.org/2000/svg">
<path d="M13.9312 2.0688C13.6312 1.76885 13.2243 1.60034 12.8 1.60034C12.3757 1.60034 11.9689 1.76885 11.6688 2.0688L5.60001 8.1376V10.4H7.86241L13.9312 4.3312C14.2312 4.03116 14.3997 3.62426 14.3997 3.2C14.3997 2.77574 14.2312 2.36884 13.9312 2.0688Z" fill="#5D5BE0"/>
<path fill-rule="evenodd" clip-rule="evenodd" d="M1.59998 4.79995C1.59998 4.3756 1.76855 3.96864 2.0686 3.66858C2.36866 3.36852 2.77563 3.19995 3.19998 3.19995H6.39998C6.61215 3.19995 6.81563 3.28424 6.96566 3.43427C7.11569 3.5843 7.19998 3.78778 7.19998 3.99995C7.19998 4.21212 7.11569 4.41561 6.96566 4.56564C6.81563 4.71567 6.61215 4.79995 6.39998 4.79995H3.19998V12.8H11.2V9.59995C11.2 9.38778 11.2843 9.1843 11.4343 9.03427C11.5843 8.88424 11.7878 8.79995 12 8.79995C12.2121 8.79995 12.4156 8.88424 12.5657 9.03427C12.7157 9.1843 12.8 9.38778 12.8 9.59995V12.8C12.8 13.2243 12.6314 13.6313 12.3313 13.9313C12.0313 14.2314 11.6243 14.4 11.2 14.4H3.19998C2.77563 14.4 2.36866 14.2314 2.0686 13.9313C1.76855 13.6313 1.59998 13.2243 1.59998 12.8V4.79995Z" fill="#5D5BE0"/>
</svg>
