<svg width="18" height="24" viewBox="0 0 18 24" fill="none" xmlns="http://www.w3.org/2000/svg">
<path d="M4.99997 19.9979H13V20.3079C13 22.3429 11.345 23.9979 9.30997 23.9979H8.69097C6.65597 23.9979 5.00097 22.3429 5.00097 20.3079V19.9979H4.99997ZM18 8.99793C18 11.5879 16.882 14.0529 14.932 15.7609C14.193 16.4089 13.657 17.1739 13.338 17.9979H4.56297C4.20497 17.1209 3.63697 16.2959 2.86797 15.5809C0.718972 13.5799 -0.299028 10.7509 0.0749717 7.81993C0.589972 3.77993 3.90397 0.514934 7.95597 0.0569337C10.523 -0.232066 13.086 0.578934 14.994 2.28393C16.904 3.99093 18 6.43793 18 8.99793ZM7.99997 9.99993C7.99997 10.5519 8.44697 10.9999 8.99997 10.9999C9.55297 10.9999 9.99997 10.5519 9.99997 9.99993V4.99993C9.99997 4.44793 9.55297 3.99993 8.99997 3.99993C8.44697 3.99993 7.99997 4.44793 7.99997 4.99993V9.99993ZM10.5 13.4999C10.5 12.6719 9.82797 11.9999 8.99997 11.9999C8.17197 11.9999 7.49997 12.6719 7.49997 13.4999C7.49997 14.3279 8.17197 14.9999 8.99997 14.9999C9.82797 14.9999 10.5 14.3279 10.5 13.4999Z" fill="#8AD3EE"/>
</svg>
