<svg width="12" height="16" viewBox="0 0 12 16" fill="none" xmlns="http://www.w3.org/2000/svg">
<path d="M5.99986 0.500003C4.906 0.498935 3.8327 0.797217 2.89625 1.36253C1.95979 1.92785 1.19589 2.73865 0.687297 3.70708C0.178705 4.67551 -0.0551821 5.76466 0.0109743 6.85652C0.0771306 7.94837 0.440808 9.00131 1.06261 9.90125C1.08749 9.95016 1.11768 9.99618 1.15261 10.0385L1.24261 10.148C1.32661 10.2568 1.41286 10.3618 1.48711 10.448L5.42086 15.2285C5.49139 15.3136 5.57987 15.3821 5.67997 15.4291C5.78007 15.476 5.8893 15.5002 5.99986 15.5C6.11072 15.5001 6.22021 15.4755 6.32046 15.4282C6.4207 15.3809 6.50921 15.3119 6.57961 15.2263L10.3986 10.5725C10.5533 10.4062 10.698 10.2309 10.8321 10.0475L10.9274 9.93125C10.9636 9.88718 10.9944 9.83882 11.0189 9.78725C11.6115 8.88226 11.9485 7.83386 11.9942 6.75302C12.0398 5.67218 11.7923 4.59912 11.278 3.6474C10.7637 2.69568 10.0016 1.90073 9.07247 1.34667C8.14332 0.792611 7.08166 0.500068 5.99986 0.500003ZM5.99986 4.25C6.44486 4.25 6.87988 4.38196 7.24989 4.6292C7.6199 4.87643 7.90829 5.22783 8.07859 5.63897C8.24888 6.0501 8.29344 6.5025 8.20662 6.93896C8.11981 7.37541 7.90552 7.77633 7.59085 8.09099C7.27618 8.40566 6.87527 8.61995 6.43881 8.70677C6.00235 8.79359 5.54995 8.74903 5.13882 8.57873C4.72768 8.40843 4.37628 8.12005 4.12905 7.75004C3.88182 7.38003 3.74986 6.94501 3.74986 6.5C3.74986 5.90327 3.98691 5.33097 4.40887 4.90901C4.83082 4.48706 5.40312 4.25 5.99986 4.25Z" fill="#D1D5DB"/>
</svg>
