<svg width="14" height="14" viewBox="0 0 14 14" fill="none" xmlns="http://www.w3.org/2000/svg">
<path d="M6.69766 9.08351C7.01146 9.39628 7.43648 9.57191 7.87957 9.57191C8.32265 9.57191 8.74767 9.39628 9.06147 9.08351L9.65242 8.49265C9.96622 8.17987 10.3912 8.00424 10.8343 8.00424C11.2774 8.00424 11.7024 8.17987 12.0162 8.49265L13.1981 9.67437C13.3709 9.81903 13.5099 9.99982 13.6052 10.204C13.7006 10.4082 13.75 10.6308 13.75 10.8561C13.75 11.0814 13.7006 11.304 13.6052 11.5082C13.5099 11.7124 13.3709 11.8932 13.1981 12.0378C10.1032 15.1331 6.54064 13.6627 3.43645 10.559C0.332265 7.45526 -1.13076 3.89659 1.96498 0.801314C2.10975 0.62868 2.29059 0.489857 2.49478 0.394609C2.69898 0.29936 2.92156 0.25 3.14688 0.25C3.37221 0.25 3.59479 0.29936 3.79898 0.394609C4.00318 0.489857 4.18402 0.62868 4.32879 0.801314L5.51069 1.98304C5.82372 2.29668 5.99952 2.72167 5.99952 3.16476C5.99952 3.60785 5.82372 4.03284 5.51069 4.34649L4.91974 4.93735C4.60671 5.25099 4.43091 5.67598 4.43091 6.11907C4.43091 6.56216 4.60671 6.98715 4.91974 7.30079L6.69766 9.08351Z" fill="#D1D5DB"/>
</svg>
