<svg xmlns="http://www.w3.org/2000/svg" xmlns:xlink="http://www.w3.org/1999/xlink" version="1.1" id="Layer" x="0px" y="0px" viewBox="0 0 64 64" width="48px" height="48px" enable-background="new 0 0 64 64" xml:space="preserve"><polygon fill="#CCE4FF" points="10,10 18,18 46,18 46,46 18,46 18,54 54,54 54,18 46,10 "/><path fill="#007AFF" d="M54.706,17.292l-7.999-7.999C46.52,9.105,46.266,9,46,9H10C9.877,9,9.761,9.029,9.651,9.07 C9.617,9.083,9.588,9.099,9.556,9.115C9.48,9.154,9.411,9.2,9.348,9.256C9.321,9.279,9.295,9.299,9.271,9.325 C9.199,9.402,9.138,9.49,9.093,9.589C9.089,9.598,9.082,9.605,9.078,9.614c0,0.001-0.001,0.002-0.002,0.003 C9.03,9.729,9.012,9.846,9.007,9.963C9.007,9.976,9,9.987,9,10v36c0,0.266,0.105,0.52,0.293,0.707l7.999,7.999 c0.092,0.093,0.203,0.166,0.326,0.217C17.74,54.973,17.87,55,18,55h36c0.13,0,0.26-0.026,0.382-0.077 c0.245-0.101,0.44-0.296,0.541-0.541C54.974,54.26,55,54.13,55,54V18c0-0.13-0.026-0.26-0.077-0.382 C54.872,17.495,54.799,17.384,54.706,17.292z M47,45.586V19h6v32.586L47,45.586z M19,19h26v26H19V19z M45.586,11l6,6H18.414l-6-6 H45.586z M11,12.414l6,6v33.172l-6-6V12.414z M19,47h26.586l6,6H19V47z"/></svg>